<svg width="24" height="24" viewBox="0 0 24 24" fill="none" xmlns="http://www.w3.org/2000/svg">
<path d="M17.6832 15.9669C16.0427 15.9669 14.6453 14.8328 14.301 13.2531H13.8554C13.5111 14.8125 12.1137 15.9669 10.4732 15.9669C8.83277 15.9669 7.43533 14.8328 7.09104 13.2531H4.31642C3.58733 13.2531 3 12.6657 3 11.9366C3 11.2075 3.58733 10.6202 4.31642 10.6202H7.51634C8.14418 9.60758 9.25807 9 10.453 9C11.6479 9 12.7618 9.60758 13.3896 10.6202H14.7263C15.3541 9.60758 16.468 9 17.6629 9C19.5869 9 21.1464 10.5595 21.1464 12.4835C21.1464 14.4075 19.6072 15.9669 17.6832 15.9669Z" fill="#62E47F" stroke="#1CA139" stroke-width="0.6" stroke-linejoin="round"/>
</svg>
