<svg width="24" height="24" viewBox="0 0 24 24" fill="none" xmlns="http://www.w3.org/2000/svg">
<path d="M12.0244 20.8007L12.0242 20.8008L12.0258 20.8117C12.1219 21.506 12.769 21.9726 13.4725 21.9726H13.476C13.5315 21.9726 13.6159 21.9726 13.7199 21.953L13.9579 21.9223L13.9594 21.9221C14.745 21.8167 15.3584 21.1429 15.2553 20.3757L15.0355 18.2228C15.1346 18.0698 15.2127 17.9077 15.2691 17.7386C15.5249 17.9658 15.8581 18.0928 16.2028 18.0928C16.4959 18.0928 16.7819 18.0019 17.0185 17.8274C17.3132 17.6135 17.5156 17.2889 17.5764 16.924C17.6381 16.5541 17.5444 16.188 17.3347 15.8884L17.3347 15.8884L17.3326 15.8855L15.5697 13.4286C15.5695 13.4283 15.5692 13.428 15.569 13.4276C15.3495 13.1172 15.0148 12.9129 14.6398 12.8594C14.2402 12.437 13.6978 12.1919 13.1053 12.1919H11.1574C10.5757 12.1919 10.0343 12.4281 9.63478 12.8387C9.1882 12.8454 8.77927 13.0579 8.51921 13.418L8.51867 13.4187L6.75524 15.8764C6.53101 16.1829 6.44994 16.552 6.51062 16.916C6.57072 17.2767 6.763 17.6053 7.07289 17.8225C7.31225 17.9919 7.5876 18.0848 7.88426 18.0848C8.29442 18.0848 8.67449 17.9114 8.93901 17.6092C8.95416 17.6659 8.97201 17.7224 8.99276 17.7787C8.99092 17.7873 8.98904 17.7963 8.98715 17.8058L8.9843 17.82L8.98284 17.8345L8.72796 20.3594C8.67733 20.7278 8.79513 21.0971 9.04416 21.3872C9.28602 21.6782 9.63442 21.865 10.0168 21.9142C10.017 21.9142 10.0173 21.9143 10.0175 21.9143L10.2528 21.9456C10.2532 21.9457 10.2537 21.9458 10.2542 21.9458C10.3121 21.9541 10.393 21.9646 10.4788 21.9646C11.179 21.9646 11.822 21.4859 11.9176 20.7957L11.9178 20.7957L11.9188 20.785L11.9711 20.2736L12.0244 20.8007Z" fill="#62E47F" stroke="#1CA139" stroke-width="0.6"/>
<path d="M5.7 8.22899C5.7 11.588 8.42885 14.3168 11.7878 14.3168C15.1468 14.3168 17.8756 11.588 17.8756 8.22899V7.82983C17.8756 4.99776 15.5779 2.7 12.7458 2.7H10.8298C7.99776 2.7 5.7 4.99776 5.7 7.82983V8.22899Z" fill="#62E47F" stroke="#1CA139" stroke-width="0.6"/>
</svg>
