<svg width="24" height="24" viewBox="0 0 24 24" fill="none" xmlns="http://www.w3.org/2000/svg">
<path d="M14.5607 16.7196C13.8237 16.7196 13.1665 16.2018 13.1067 15.5246L12.7482 12.2183H11.9515L11.593 15.5246C11.5133 16.2018 10.876 16.7196 10.1391 16.7196H6.05601C5.65766 16.7196 5.29915 16.5603 5.06014 16.3014C4.84105 16.0624 4.74147 15.7636 4.7813 15.4449L5.39873 9.84817V8.17511C5.39873 7.51784 5.9365 7 6.57386 7H6.59377L12.1109 7.35851L18.1259 7C18.7831 7 19.301 7.53776 19.301 8.17511V9.84817L19.9184 15.4449C19.9583 15.7636 19.8587 16.0624 19.6396 16.3014C19.4006 16.5603 19.0421 16.7196 18.6437 16.7196H14.5607Z" fill="#62E47F" stroke="#1CA139" stroke-width="0.6" stroke-linejoin="round"/>
</svg>
