<svg width="24" height="24" viewBox="0 0 24 24" fill="none" xmlns="http://www.w3.org/2000/svg">
<path d="M15.75 17.5301H6.79427C5.81132 17.5301 5 17.6082 5 16.75L6.20138 7.23259C6.20138 6.37446 7.0127 7.10778 7.99565 7.10778H14.7047C15.6876 7.10778 16.3429 6.37446 16.3429 7.23259L17.5443 16.75C17.5443 17.6082 16.733 17.5301 15.75 17.5301Z" fill="#62E47F" stroke="#1CA139" stroke-width="0.6" stroke-linejoin="round"/>
<path d="M6.27938 7.10776L10.1176 8.30915C10.648 8.48077 11.1473 7.93469 11.1473 7.20138V7.13897C11.1473 6.51488 10.7729 6 10.3048 6H6.57582C6.32618 6 6.09215 6.14042 5.93613 6.39006C5.79571 6.6397 5.7489 6.95174 6.27938 7.10776Z" fill="#62E47F" stroke="#1CA139" stroke-width="0.6" stroke-linejoin="round"/>
<path d="M16.2805 7.10776L12.5672 8.30915C12.0523 8.48077 11.5686 7.93469 11.5686 7.20138V7.13897C11.5686 6.51488 11.9275 6 12.3799 6H15.9841C16.2181 6 16.4521 6.14042 16.5926 6.39006C16.7642 6.6397 16.811 6.95174 16.2805 7.10776Z" fill="#62E47F" stroke="#1CA139" stroke-width="0.6" stroke-linejoin="round"/>
<path d="M11.3502 9.19839C12.0482 9.19839 12.614 8.73036 12.614 8.15303C12.614 7.57569 12.0482 7.10767 11.3502 7.10767C10.6522 7.10767 10.0864 7.57569 10.0864 8.15303C10.0864 8.73036 10.6522 9.19839 11.3502 9.19839Z" fill="#62E47F" stroke="#1CA139" stroke-width="0.6" stroke-linejoin="round"/>
</svg>
