<svg width="24" height="24" viewBox="0 0 24 24" fill="none" xmlns="http://www.w3.org/2000/svg">
<path d="M7.76688 10.9311C8.78814 10.9311 9.61604 9.82722 9.61604 8.46554C9.61604 7.10386 8.78814 6 7.76688 6C6.74562 6 5.91772 7.10386 5.91772 8.46554C5.91772 9.82722 6.74562 10.9311 7.76688 10.9311Z" fill="#62E47F" stroke="#1CA139" stroke-width="0.6" stroke-linejoin="round"/>
<path d="M16.3963 10.9311C17.4175 10.9311 18.2454 9.82722 18.2454 8.46554C18.2454 7.10386 17.4175 6 16.3963 6C15.375 6 14.5471 7.10386 14.5471 8.46554C14.5471 9.82722 15.375 10.9311 16.3963 10.9311Z" fill="#62E47F" stroke="#1CA139" stroke-width="0.6" stroke-linejoin="round"/>
<path d="M12.5006 17.0703C10.8487 17.0703 9.5913 16.6265 8.80232 15.7883C8.35852 15.3198 8.06266 14.7281 7.91473 14.0377C7.86542 13.7665 7.91473 13.4706 8.08732 13.2734C8.2599 13.0515 8.53111 12.9282 8.80232 12.9282H15.8291C16.125 12.9282 16.3962 13.0515 16.5688 13.2981C16.7414 13.52 16.8153 13.8158 16.7414 14.087C16.5934 14.6788 16.1496 15.8129 14.9908 16.5033C14.3005 16.8731 13.4622 17.0703 12.5006 17.0703Z" fill="#62E47F" stroke="#1CA139" stroke-width="0.6" stroke-linejoin="round"/>
<path d="M12.5007 16.8237C10.9227 16.8237 9.73928 16.4045 8.97496 15.6156C8.90099 15.5169 8.87634 15.3937 8.97496 15.295C9.51738 14.6047 10.6022 14.1855 11.8103 14.1855C13.4376 14.1855 14.769 14.9499 14.9909 15.9854C15.0155 16.084 14.9662 16.1826 14.8676 16.2566C14.2019 16.6264 13.4129 16.8237 12.5007 16.8237Z" fill="#62E47F" stroke="#1CA139" stroke-width="0.6" stroke-linejoin="round"/>
</svg>
