<svg width="24" height="24" viewBox="0 0 24 24" fill="none" xmlns="http://www.w3.org/2000/svg">
<path d="M7.14823 17C6.39738 17 6.345 16.4281 6.32754 16.1422C6.31008 16.0076 6.31008 15.8731 6.25769 15.789C6.17038 15.6544 5.9783 15.4862 5.71638 15.4862C5.48938 15.4862 5.24492 15.604 5.00045 15.8395C4.94807 15.8899 4.86076 15.9235 4.77345 15.9235C4.75599 15.9235 4.72107 15.9235 4.7036 15.9067C4.59884 15.8731 4.51153 15.8058 4.4766 15.7049C4.44168 15.604 3.67337 13.0138 4.16229 10.9786C4.33691 10.1208 4.94807 9.24618 5.83861 8.55658C6.81646 7.7997 8.05624 7.37921 9.29601 7.37921C9.90717 7.37921 10.5183 7.4633 11.0771 7.61468C11.8803 6.60551 13.382 6 15.1631 6C17.049 6 18.5681 7.48012 18.5681 9.27982C18.5681 9.39755 18.5681 9.51529 18.5507 9.64985C19.4587 10.2722 20 11.2477 20 12.341C20 13.6529 18.6205 15.1835 17.73 15.1835C17.5554 15.1835 16.9791 15.1162 16.9791 14.2416C16.9791 13.367 16.7347 13.367 16.4029 13.367C16.2283 13.367 16.0362 13.3838 15.8092 13.4174C15.4949 13.4511 15.1631 13.4847 14.7615 13.4847C14.063 13.4847 13.4344 13.5015 12.8757 13.5184C12.4042 13.5352 11.9676 13.552 11.5835 13.552C10.6929 13.552 10.0993 13.4847 9.59286 13.3165C9.45317 13.2661 9.31348 13.2492 9.20871 13.2492C9.08648 13.2492 8.99917 13.2829 8.94678 13.3333C8.8944 13.4006 8.87694 13.5015 8.8944 13.5688C8.99917 14.0734 8.80709 14.4098 8.68486 14.6621C8.56263 14.8639 8.5277 14.948 8.58009 15.0657C8.7547 15.5872 8.8944 16.1254 8.58009 16.5291C8.33563 16.8486 7.88162 17 7.14823 17Z" fill="#62E47F" stroke="#1CA139" stroke-width="0.6" stroke-linejoin="round"/>
</svg>
