<svg width="56" height="54" viewBox="0 0 56 54" fill="none" xmlns="http://www.w3.org/2000/svg">
<path d="M26.2 50.8001C24.8 50.8001 23.4 50.2001 22.4 49.2001C21 47.8001 20.5 45.7001 21 43.9001L19.4 45.5001C18.3 46.6001 16.8 47.2001 15.2 47.2001C13.6 47.2001 12.1 46.6001 11 45.5001C9.19996 43.7001 8.79995 41.0001 9.79995 38.8001C9.39995 38.9001 8.89999 39.0001 8.39999 39.0001C6.79999 39.0001 5.29998 38.4001 4.19998 37.3001C1.89998 35.0001 1.89998 31.2001 4.19998 28.9001L16.7 16.4001C17.2 15.9001 17.8 15.5001 18.4 15.2001L15.5 14.9001C13.7 14.9001 12.1 14.1001 11 12.7001C9.79996 11.3001 9.39995 9.50013 9.79995 7.70013C10.4 4.90013 12.9 2.90015 15.9 2.90015H34C34.5 2.90015 35 3.0001 35.5 3.1001C38.3 3.3001 40.8999 4.50015 42.7999 6.40015L49.5 13.1001C54.1 17.7001 54.1 25.1001 49.5 29.6001L44.2 34.9001C43.8 35.3001 43.3 35.7001 42.9 36.0001C42.6 36.6001 42.2999 37.1001 41.7999 37.6001L30 49.2001C29 50.2001 27.7 50.8001 26.2 50.8001Z" fill="#62E47F"/>
<path d="M33.9999 5.00012C34.3999 5.00012 34.7999 5.10013 35.0999 5.20013C37.2999 5.30013 39.5 6.20015 41.2 7.90015L47.9 14.6001C51.6 18.3001 51.6 24.3001 47.9 28.0001L42.5999 33.3001C42.0999 33.8001 41.5999 34.2001 40.9999 34.5001C40.8999 35.0001 40.6 35.6001 40.2 36.0001L28.4999 47.7001C27.8999 48.3001 27.1 48.6001 26.2 48.6001C25.4 48.6001 24.6 48.3001 23.9 47.7001C22.7 46.5001 22.7 44.4001 23.9 43.2001L30.4 36.7001C30.2 36.5001 29.9999 36.4001 29.7999 36.2001L27.7 34.1001C27.6 34.2001 27.5 34.3001 27.4 34.4001L17.7 44.1001C17 44.8001 15.9999 45.2001 15.0999 45.2001C14.0999 45.2001 13.1999 44.8001 12.4999 44.1001C11.0999 42.7001 11.0999 40.3001 12.4999 38.8001L22.2 29.1001C22.3 29.0001 22.3999 28.9001 22.4999 28.8001L20.2 26.5001L18.7999 27.9001C18.7999 27.9001 19.0999 27.6001 20.0999 26.6001L11.0999 35.6001C10.3999 36.3001 9.39994 36.7001 8.49994 36.7001C7.49994 36.7001 6.59996 36.3001 5.89996 35.6001C4.49996 34.2001 4.49996 31.8001 5.89996 30.3001L18.4 17.8001C19 17.2001 19.9 16.8001 20.7 16.8001C21 15.5001 21.5999 14.2001 22.5999 13.2001L20.9999 13.1001C20.8999 13.1001 20.8999 13.1001 20.7999 13.1001L15.7999 12.6001C13.3999 12.6001 11.5999 10.4001 12.0999 8.00012C12.4999 6.20012 14.1999 5.00012 15.9999 5.00012H33.9999ZM33.9999 0.600098H15.7999C11.7999 0.600098 8.29991 3.40013 7.59991 7.20013C7.09991 9.60013 7.69993 12.2001 9.29993 14.1001C10.2999 15.4001 11.7 16.3001 13.2 16.8001L2.59991 27.4001C1.09991 28.9001 0.199951 31.0001 0.199951 33.2001C0.199951 35.4001 0.999915 37.4001 2.59991 39.0001C3.79991 40.2001 5.29994 41.0001 6.99994 41.3001C6.99994 41.4001 6.99994 41.5001 6.99994 41.6001C6.99994 43.8001 7.79996 45.8001 9.39996 47.4001C10.9 48.9001 13 49.8001 15.2 49.8001C16.6 49.8001 18 49.4001 19.2 48.8001C19.6 49.7001 20.0999 50.5001 20.7999 51.1001C22.1999 52.5001 24.2 53.3001 26.2 53.3001C28.2 53.3001 30.1999 52.5001 31.5999 51.1001L43.2999 39.4001C43.7999 38.9001 44.1999 38.4001 44.4999 37.8001C44.8999 37.5001 45.2999 37.1001 45.7 36.8001L50.9999 31.5001C53.5999 28.9001 55.0999 25.4001 55.0999 21.7001C55.0999 18.0001 53.6999 14.5001 50.9999 11.9001L44.2999 5.20013C41.9999 2.90013 38.9999 1.50013 35.7999 1.20013C35.1999 0.600134 34.5999 0.600098 33.9999 0.600098Z" fill="#1CA139"/>
<path d="M18.7 25.2002C18.7 25.2002 27.0999 37.4002 34.9999 35.8002L18.7 25.2002Z" fill="#62E47F"/>
<path d="M33.5 37.7001C25.2 37.7001 17.5 26.7001 17.2 26.2001C16.6 25.4001 16.8 24.3001 17.7 23.7001C18.5 23.1001 19.6 23.3001 20.2 24.2001C22.4 27.3001 29.0999 35.2001 34.5999 34.1001C35.5999 33.9001 36.5 34.5001 36.7 35.5001C36.9 36.5001 36.2999 37.4001 35.2999 37.6001C34.6999 37.7001 34.1 37.7001 33.5 37.7001Z" fill="#1CA139"/>
<path d="M21.4999 14.3999C21.4999 14.3999 27 22.3999 32.2 21.2999L21.4999 14.3999Z" fill="#62E47F"/>
<path d="M31.2 23.5C25.5 23.5 20.3999 16.5 19.7999 15.6C19.1999 14.7 19.3999 13.4 20.2999 12.8C21.1999 12.2 22.4999 12.4 23.0999 13.3C24.2999 15.1 28.6 20 31.7 19.4C32.8 19.2 33.7999 19.9 34.0999 21C34.2999 22.1 33.6 23.1 32.5 23.4C32.1 23.4 31.7 23.5 31.2 23.5Z" fill="#1CA139"/>
</svg>
