<svg width="56" height="53" viewBox="0 0 56 53" fill="none" xmlns="http://www.w3.org/2000/svg">
<path d="M29.2 50.7999C27.8 50.7999 26.4 50.1999 25.4 49.1999L13.7 37.4999C13.3 37.0999 12.9 36.4999 12.6 35.8999C12.1 35.5999 11.7 35.1999 11.3 34.7999L6 29.4999C3.8 27.2999 2.59998 24.3999 2.59998 21.1999C2.59998 17.9999 3.8 15.0999 6 12.8999L12.7 6.19989C14.6 4.29989 17.2 3.09987 20 2.79987C20.5 2.69987 21 2.59985 21.5 2.59985H39.7C42.7 2.59985 45.2 4.5999 45.8 7.3999C46.2 9.1999 45.7 10.9999 44.6 12.3999C43.5 13.7999 41.8 14.5999 40.1 14.5999L37.2 14.8999C37.8 15.1999 38.4 15.5999 38.9 16.0999L51.4 28.5999C53.7 30.8999 53.7 34.6999 51.4 36.9999C50.3 38.0999 48.8 38.6999 47.2 38.6999C46.7 38.6999 46.3 38.5999 45.8 38.4999C46.2 39.2999 46.4 40.0999 46.4 40.9999C46.4 42.5999 45.8 44.0999 44.7 45.1999C43.6 46.2999 42.1 46.8999 40.5 46.8999C38.9 46.8999 37.4 46.2999 36.3 45.1999L34.7 43.5999C35.2 45.3999 34.7 47.4999 33.3 48.8999C32 50.1999 30.6 50.7999 29.2 50.7999Z" fill="#62E47F"/>
<path d="M21.4 4.99988H39.6C41.4 4.99988 43.1 6.19988 43.5 7.99988C44 10.3999 42.1 12.5999 39.8 12.5999L34.8 13.0999C34.7 13.0999 34.7 13.0999 34.6 13.0999L33 13.1999C34 14.1999 34.6 15.4999 34.9 16.7999C35.7 16.8999 36.6 17.1999 37.2 17.7999L49.7 30.2999C51.1 31.6999 51.1 34.0999 49.7 35.5999C49 36.2999 48 36.6999 47.1 36.6999C46.2 36.6999 45.2 36.2999 44.5 35.5999L35.5 26.5999C36.5 27.5999 36.8 27.8999 36.8 27.8999L35.4 26.4999L33.1 28.7999C33.2 28.8999 33.3 28.9999 33.4 29.0999L43.1 38.7999C44.5 40.1999 44.5 42.5999 43.1 44.0999C42.4 44.7999 41.4 45.1999 40.5 45.1999C39.6 45.1999 38.6 44.7999 37.9 44.0999L28.2 34.3999C28.1 34.2999 28 34.1999 27.9 34.0999L25.8 36.1999C25.6 36.3999 25.4 36.5999 25.2 36.6999L31.7 43.1999C32.9 44.3999 32.9 46.4999 31.7 47.6999C31.1 48.2999 30.3 48.5999 29.4 48.5999C28.6 48.5999 27.8 48.2999 27.1 47.6999L15.4 35.9999C15 35.5999 14.7 35.0999 14.6 34.4999C14 34.1999 13.5 33.7999 13 33.2999L7.70002 27.9999C4.00002 24.2999 4.00002 18.2999 7.70002 14.5999L14.4 7.8999C16.1 6.1999 18.3 5.29989 20.5 5.19989C20.6 5.09989 21 4.99988 21.4 4.99988ZM21.4 0.599854C20.8 0.599854 20.2 0.699866 19.5 0.799866C16.3 1.09987 13.3 2.49987 11 4.79987L4.3 11.4999C-1.1 16.8999 -1.1 25.6999 4.3 31.0999L9.59999 36.3999C9.99999 36.7999 10.4 37.0999 10.8 37.3999C11.1 37.9999 11.5 38.5999 12 38.9999L23.7 50.6999C25.1 52.0999 27.1 52.8999 29.1 52.8999C31.1 52.8999 33.1 52.0999 34.5 50.6999C35.2 49.9999 35.7 49.1999 36.1 48.3999C37.3 49.0999 38.7 49.3999 40.1 49.3999C42.3 49.3999 44.3 48.5999 45.9 46.9999C47.6 45.2999 48.4 43.0999 48.3 40.9999C50 40.6999 51.5 39.8999 52.7 38.6999C55.9 35.4999 55.9 30.2999 52.7 27.1999L42.1 16.5999C43.6 16.0999 45 15.1999 46 13.8999C47.6 11.9999 48.2 9.49988 47.7 6.99988C46.9 3.19988 43.5 0.399902 39.5 0.399902L21.4 0.599854Z" fill="#1CA139"/>
<path d="M36.7 25.1997C36.7 25.1997 28.3 37.3997 20.4 35.7997L36.7 25.1997Z" fill="#62E47F"/>
<path d="M21.8 37.6998C21.2 37.6998 20.6 37.5998 20 37.4998C19 37.2998 18.4 36.3998 18.6 35.3998C18.8 34.3998 19.7 33.7998 20.7 33.9998C26.2 35.0998 33 27.1997 35.1 24.0997C35.7 23.2997 36.8 23.0997 37.6 23.5997C38.4 24.1997 38.6 25.2997 38.1 26.0997C37.8 26.6997 30.1 37.6998 21.8 37.6998Z" fill="#1CA139"/>
<path d="M33.9 14.3999C33.9 14.3999 28.4 22.3999 23.2 21.2999L33.9 14.3999Z" fill="#62E47F"/>
<path d="M24.1 23.5C23.7 23.5 23.2 23.5 22.8 23.4C21.7 23.2 21 22.1 21.2 21C21.4 19.9 22.5 19.2 23.6 19.4C26.7 20 31 15.1 32.2 13.3C32.8 12.4 34.1 12.2 35 12.8C35.9 13.4 36.1 14.7 35.5 15.6C34.9 16.4 29.9 23.5 24.1 23.5Z" fill="#1CA139"/>
</svg>
