<svg width="24" height="24" viewBox="0 0 24 24" fill="none" xmlns="http://www.w3.org/2000/svg">
<path d="M12.3198 17.9898C10.3216 17.9898 8.03804 17.633 7.43146 16.8123C7.23521 16.5804 7.12817 16.2949 7.12817 15.9738C7.12817 15.956 7.12817 15.956 7.12817 15.9381L7.37794 13.3691C7.30658 13.3869 7.23522 13.4048 7.14601 13.4048C6.8784 13.4048 6.64648 13.2799 6.48591 13.0658L5.14787 11.2104C4.8981 10.8536 4.96946 10.354 5.32627 10.0864L8.6803 7.69578C9.10847 7.32112 9.64369 7.07136 10.1967 7C10.2146 7 10.2324 7 10.2681 7C10.4287 7 10.5714 7.07136 10.6606 7.19624C10.7498 7.32113 10.7855 7.4817 10.7498 7.62442C10.732 7.67794 10.732 7.7493 10.732 7.80283C10.732 8.37372 11.4634 8.87326 12.3198 8.87326C13.1761 8.87326 13.9076 8.39156 13.9076 7.80283C13.9076 7.7493 13.9076 7.67794 13.8897 7.62442C13.8541 7.4817 13.8897 7.32113 13.979 7.19624C14.0682 7.07136 14.2287 7 14.3714 7C14.3893 7 14.4071 7 14.4428 7C14.9959 7.07136 15.5132 7.32112 15.9593 7.69578L19.3133 10.0864C19.6701 10.3362 19.7593 10.8536 19.4917 11.2104L18.1536 13.0658C18.0109 13.2799 17.7612 13.4048 17.4935 13.4048C17.4222 13.4048 17.333 13.3869 17.2616 13.3691L17.5292 15.9738C17.5292 15.9916 17.5292 15.9916 17.5292 16.0095C17.5292 16.3128 17.4222 16.6161 17.2081 16.848C16.6015 17.633 14.3179 17.9898 12.3198 17.9898Z" fill="#62E47F" stroke="#1CA139" stroke-width="0.6" stroke-linejoin="round"/>
</svg>
