<svg width="24" height="24" viewBox="0 0 24 24" fill="none" xmlns="http://www.w3.org/2000/svg">
<path d="M19.2326 13.6007C19.1294 13.6007 19.0469 13.6007 18.9437 13.5801C18.9025 13.5801 18.8612 13.5801 18.82 13.5801H6.04973C6.00847 13.5801 5.96721 13.5801 5.92595 13.5801C5.8228 13.6007 5.74028 13.6007 5.63712 13.6007C5.18326 13.6007 4.77065 13.4356 4.46119 13.1056L2.87265 11.517C2.33626 10.9806 2.33626 10.5268 2.43941 10.2586C2.5632 9.92847 2.93454 9.49524 4.04859 9.39209C4.08985 9.39209 4.1311 9.39209 4.17237 9.39209C4.50245 9.39209 4.83254 9.5365 5.0801 9.78406L6.31793 11.0219H18.5724L19.8102 9.78406C20.0578 9.5365 20.3879 9.39209 20.7179 9.39209C20.7592 9.39209 20.8005 9.39209 20.8417 9.39209C21.9558 9.51587 22.3271 9.92847 22.4509 10.2586C22.554 10.5474 22.5541 10.9806 22.0177 11.517L20.4291 13.1056C20.099 13.415 19.6658 13.6007 19.2326 13.6007Z" fill="#62E47F"/>
<path d="M20.6973 9.74269C20.7179 9.74269 20.7592 9.74269 20.7798 9.74269C22.1414 9.8871 22.4509 10.5267 21.7288 11.2487L20.1403 12.8372C19.8927 13.0848 19.5626 13.2086 19.2326 13.2086C19.15 13.2086 19.0469 13.2086 18.9644 13.188C18.9231 13.188 18.8612 13.188 18.8199 13.188H6.04973C6.00847 13.188 5.94658 13.188 5.90532 13.188C5.82279 13.2086 5.71964 13.2086 5.63712 13.2086C5.30703 13.2086 4.97695 13.0848 4.72938 12.8372L3.14084 11.2487C2.41878 10.5267 2.72823 9.8871 4.08984 9.74269C4.11047 9.74269 4.15173 9.74269 4.17236 9.74269C4.41993 9.74269 4.64686 9.84585 4.8119 10.0109L6.15288 11.3519H18.7168L20.0578 10.0109C20.2228 9.84585 20.4497 9.74269 20.6973 9.74269ZM4.15173 9C4.08984 9 4.04858 9 3.98669 9C2.66634 9.14441 2.21247 9.68081 2.06806 10.114C1.96491 10.4235 1.88239 11.063 2.58382 11.7645L4.17236 13.353C4.56434 13.745 5.05947 13.9513 5.61649 13.9513C5.71964 13.9513 5.82279 13.9513 5.92594 13.9307C5.9672 13.9307 6.00847 13.9307 6.04973 13.9307H18.8199C18.8612 13.9307 18.9025 13.9307 18.9437 13.9307C19.0469 13.9513 19.15 13.9513 19.2532 13.9513C19.7896 13.9513 20.3053 13.745 20.6973 13.353L22.2858 11.7645C23.0079 11.0424 22.9254 10.4235 22.8016 10.114C22.6572 9.68081 22.1827 9.12378 20.883 9C20.8211 9 20.7798 9 20.7179 9C20.2847 9 19.8515 9.18568 19.542 9.49513L18.428 10.6092H6.48296L5.36892 9.49513C5.01821 9.18568 4.58497 9 4.15173 9Z" fill="#1CA139"/>
<path d="M7.10183 14.5289C6.56544 14.5289 6.15283 14.0956 6.15283 13.5799C6.15283 13.0435 6.58607 12.6309 7.10183 12.6309H9.43307C9.96946 12.6309 10.3821 13.0641 10.3821 13.5799C10.3821 14.1163 9.94883 14.5289 9.43307 14.5289H7.10183Z" fill="#62E47F"/>
<path d="M9.43307 12.9197C9.78379 12.9197 10.0726 13.2085 10.0726 13.5592C10.0726 13.9099 9.78379 14.1988 9.43307 14.1988H7.10184C6.75112 14.1988 6.4623 13.9099 6.4623 13.5592C6.4623 13.2085 6.75112 12.9197 7.10184 12.9197H9.43307ZM9.43307 12.3008H7.10184C6.4004 12.3008 5.84338 12.8784 5.84338 13.5592C5.84338 14.24 6.42103 14.8177 7.10184 14.8177H9.43307C10.1345 14.8177 10.6915 14.24 10.6915 13.5592C10.6915 12.8784 10.1139 12.3008 9.43307 12.3008Z" fill="#1CA139"/>
<path d="M7.45251 12.9402V14.1986" stroke="#1CA139" stroke-width="0.263158" stroke-miterlimit="10" stroke-linecap="round" stroke-linejoin="round"/>
<path d="M8.29834 12.9402V14.1986" stroke="#1CA139" stroke-width="0.263158" stroke-miterlimit="10" stroke-linecap="round" stroke-linejoin="round"/>
<path d="M9.14429 12.9402V14.1986" stroke="#1CA139" stroke-width="0.263158" stroke-miterlimit="10" stroke-linecap="round" stroke-linejoin="round"/>
<path d="M15.3953 14.5289C14.8589 14.5289 14.4463 14.0956 14.4463 13.5799C14.4463 13.0435 14.8795 12.6309 15.3953 12.6309H17.7265C18.2423 12.6309 18.6755 13.0641 18.6755 13.5799C18.6755 14.1163 18.2423 14.5289 17.7265 14.5289H15.3953Z" fill="#62E47F"/>
<path d="M17.7265 12.9197C18.0772 12.9197 18.3661 13.2085 18.3661 13.5592C18.3661 13.9099 18.0772 14.1988 17.7265 14.1988H15.3953C15.0446 14.1988 14.7558 13.9099 14.7558 13.5592C14.7558 13.2085 15.0446 12.9197 15.3953 12.9197H17.7265ZM17.7265 12.3008H15.3953C14.6939 12.3008 14.1368 12.8784 14.1368 13.5592C14.1368 14.24 14.7145 14.8177 15.3953 14.8177H17.7265C18.428 14.8177 18.985 14.24 18.985 13.5592C18.985 12.8784 18.428 12.3008 17.7265 12.3008Z" fill="#1CA139"/>
<path d="M15.7666 12.9404V14.1989" stroke="#1CA139" stroke-width="0.263158" stroke-miterlimit="10" stroke-linecap="round" stroke-linejoin="round"/>
<path d="M16.6124 12.9404V14.1989" stroke="#1CA139" stroke-width="0.263158" stroke-miterlimit="10" stroke-linecap="round" stroke-linejoin="round"/>
<path d="M17.4584 12.9404V14.1989" stroke="#1CA139" stroke-width="0.263158" stroke-miterlimit="10" stroke-linecap="round" stroke-linejoin="round"/>
</svg>
