<svg width="24" height="24" viewBox="0 0 24 24" fill="none" xmlns="http://www.w3.org/2000/svg">
<path d="M15.2018 7.57544H13.1161V12.2683L18.0248 16.5836H18.6541V9.57126C18.6721 9.57126 18.8519 7.57544 15.2018 7.57544Z" fill="#62E47F" stroke="#1CA139" stroke-width="0.419265" stroke-miterlimit="10"/>
<path d="M15.957 7.01807H13.0801C12.8284 7.01807 12.6306 7.21585 12.6306 7.46758V11.3154C12.6306 12.4841 13.4757 13.4551 14.5905 13.6529C14.8242 14.9295 15.8671 15.4509 16.5144 15.5768C16.7122 16.4218 17.4494 17.0512 18.3484 17.0512H18.8339C19.0856 17.0512 19.2834 16.8534 19.2834 16.6016V10.3624C19.2834 8.51045 17.791 7.01807 15.957 7.01807ZM18.3844 16.1342H18.3484C17.809 16.1342 17.3595 15.6846 17.3595 15.1452V12.2684C17.3595 12.0166 17.1617 11.8188 16.91 11.8188C16.6582 11.8188 16.4604 12.0166 16.4604 12.2684V14.6238C15.6154 14.3541 15.4356 13.5629 15.4356 13.2213V10.3444C15.4356 10.0927 15.2378 9.89494 14.986 9.89494C14.7343 9.89494 14.5365 10.0927 14.5365 10.3444V12.6999C13.9432 12.5021 13.5117 11.9447 13.5117 11.2974V7.89911H15.939C17.2876 7.89911 18.3664 8.99592 18.3664 10.3265L18.3844 16.1342Z" fill="#1CA139"/>
<path d="M8.08158 7.57544H10.1673V12.2683L5.25865 16.5836H4.62933V9.57126C4.62933 9.57126 4.43155 7.57544 8.08158 7.57544Z" fill="#62E47F" stroke="#1CA139" stroke-width="0.419265" stroke-miterlimit="10"/>
<path d="M7.32638 7.01798C5.49238 7.01798 4 8.51035 4 10.3444V16.5836C4 16.8353 4.19778 17.0331 4.44951 17.0331H4.93498C5.83401 17.0331 6.58919 16.4038 6.76899 15.5587C7.41629 15.4508 8.47713 14.9114 8.6929 13.6348C9.80768 13.437 10.6528 12.466 10.6528 11.2973V7.44951C10.6528 7.19778 10.455 7 10.2033 7H7.32638V7.01798ZM4.89902 16.1341V10.3444C4.89902 8.99583 5.97785 7.917 7.32638 7.917H9.75375V11.3153C9.75375 11.9626 9.32221 12.52 8.72886 12.7178V10.3623C8.72886 10.1106 8.53107 9.91283 8.27935 9.91283C8.02762 9.91283 7.82984 10.1106 7.82984 10.3623V13.2392C7.82984 13.5808 7.65003 14.372 6.80495 14.6417V12.2683C6.80495 12.0165 6.60717 11.8188 6.35544 11.8188C6.10371 11.8188 5.90593 12.0165 5.90593 12.2683V15.1451C5.90593 15.6846 5.45642 16.1341 4.917 16.1341H4.89902Z" fill="#1CA139"/>
</svg>
