<svg xmlns="http://www.w3.org/2000/svg" xmlns:xlink="http://www.w3.org/1999/xlink" viewBox="0 0 31.17 31.17"><defs><clipPath id="a" transform="translate(0)"><rect width="31.18" height="31.18" fill="none"/></clipPath></defs><g clip-path="url(#a)"><path d="M14.79,0h1.63s.07,0,.11,0a12.52,12.52,0,0,1,1.83.22,15.31,15.31,0,0,1,8.77,4.87,15.35,15.35,0,0,1,4,9.18,1.27,1.27,0,0,0,.05.43v1.72s0,.07,0,.11a14.92,14.92,0,0,1-.34,2.4A15.6,15.6,0,0,1,16.88,31.12a2.4,2.4,0,0,0-.46.05H14.88a.26.26,0,0,0-.15,0c-.27,0-.53,0-.8-.06a14.92,14.92,0,0,1-2.4-.44A15.6,15.6,0,0,1,.06,16.91,3.15,3.15,0,0,0,0,16.3V14.79a.08.08,0,0,0,0-.08,14.34,14.34,0,0,1,.14-1.47A15.61,15.61,0,0,1,14.3.06,2.05,2.05,0,0,0,14.79,0ZM9.94,28.18a6,6,0,0,0,.73.32q.44.16.87.3l.34.09a8.18,8.18,0,0,0,1.19.27l.06,0a14.92,14.92,0,0,0,2,.22,13.33,13.33,0,0,0,2.52-.15A8.74,8.74,0,0,0,19,29l.34-.08a3.88,3.88,0,0,0,.45-.14,2.4,2.4,0,0,0,.38-.12,12.15,12.15,0,0,0,1.5-.62,10.89,10.89,0,0,0,1.68-1,1.78,1.78,0,0,0,.36-.25l.14-.09A13.44,13.44,0,0,0,27.23,23a13.67,13.67,0,0,0,2.08-9.09,13.39,13.39,0,0,0-1.45-4.7,13.81,13.81,0,0,0-24.53,0,13.48,13.48,0,0,0-1.3,9,13.57,13.57,0,0,0,5.18,8.37A12.39,12.39,0,0,0,9.46,28l.11.05A1.56,1.56,0,0,0,9.94,28.18Z" transform="translate(0)" fill="#39a6bf"/><path d="M9.46,28a12.39,12.39,0,0,1-2.25-1.39A13.52,13.52,0,0,1,2,18.2,13.8,13.8,0,0,1,21.92,3.32a13.62,13.62,0,0,1,5.93,5.92,13.34,13.34,0,0,1,1.45,4.69A13.61,13.61,0,0,1,27.22,23a13.44,13.44,0,0,1-3.4,3.65,1,1,0,0,1-.13.09,2.45,2.45,0,0,0-.52-.88,8.73,8.73,0,0,0-1.36-1.29c-.37-.29-.79-.51-1.18-.77L22,23.76c.33,0,.33,0,.28.31,0,.11,0,.15.12.14.47,0,.92-.12,1.38-.18h.05a.05.05,0,0,0,0,0s0,0,0-.05a.06.06,0,0,0,0,0c0-.05,0-.09,0-.14s0,0,0-.05,0,0,0,0l0,0H24c.08,0,0,.09,0,.14v.06c0,.11,0,.14.13.12.31-.08.63-.14.94-.2.11,0,.17-.06.17-.18s.05-.09.11-.1l.5-.07c.33-.06.35-.07.41-.34a18.23,18.23,0,0,0,.4-2.65,25.4,25.4,0,0,0,0-4.36,22.64,22.64,0,0,0-1-5.1,10.6,10.6,0,0,0-1.59-3.19A7.72,7.72,0,0,0,20.4,5a3.53,3.53,0,0,0-2.74.2.16.16,0,0,1-.09,0,.14.14,0,0,1-.09,0L16.82,5a6.78,6.78,0,0,0-1.89-.35,10.66,10.66,0,0,0-4.72.94A8.37,8.37,0,0,0,8.19,7a9.74,9.74,0,0,0-2,2.57,3.28,3.28,0,0,0-.36.84l-.77-.51A.22.22,0,0,0,5,9.87H4.84a.43.43,0,0,0-.23.1.47.47,0,0,0-.15.19.53.53,0,0,0,0,.25.53.53,0,0,0,.08.24.87.87,0,0,0,.17.22l.67.61s.13.08.16.17A3,3,0,0,0,5.4,12a19.21,19.21,0,0,0-.23,3.79,1.66,1.66,0,0,0,.08.58.56.56,0,0,1,0,.12,4.4,4.4,0,0,0-.31,2,.73.73,0,0,0,.07.24.58.58,0,0,0,.17.18.39.39,0,0,1,.1.08.65.65,0,0,0,0,.24,9.68,9.68,0,0,0,.14,1.32,10.6,10.6,0,0,0,.71,2.65.45.45,0,0,0,.16.22.58.58,0,0,0,.25.12c.17,0,.33.08.5.12A14.13,14.13,0,0,0,9.32,24c.18,0,.21,0,.13-.17A6.44,6.44,0,0,1,9.2,23s0-.1,0-.12.06.06.08.1l.46.89c0,.05.06.1.13.09A10.84,10.84,0,0,1,11,24a2.69,2.69,0,0,1,1,.18,24,24,0,0,0-1.64,2.7.41.41,0,0,0-.29,0,.51.51,0,0,0-.21.2c-.08.14-.16.28-.25.42a.64.64,0,0,0-.13.46Z" transform="translate(0)" fill="#fdfdfd"/><path d="M23.33,27a11.7,11.7,0,0,1-1.68,1,10.78,10.78,0,0,1-1.5.62l.06-.13c.14-.25.33-.47.49-.7a3.77,3.77,0,0,1,1-1.14s0,0,0-.06a.13.13,0,0,0-.09,0,.34.34,0,0,1-.2,0,.41.41,0,0,1-.17-.12c-.08-.07-.15-.15-.24-.22a6,6,0,0,0-.89-.7,1.27,1.27,0,0,0-1,0,.29.29,0,0,0-.09.09,3,3,0,0,1-.4-.39s0,0,0,0a.05.05,0,0,1,0-.06,0,0,0,0,1,0,0A12.76,12.76,0,0,1,19.41,24c.18,0,.32-.12.49-.14a4.71,4.71,0,0,1,.65.4A10.13,10.13,0,0,1,22.64,26,2.6,2.6,0,0,1,23.33,27Z" transform="translate(0)" fill="#f9d6c7"/><path d="M19,29a8.74,8.74,0,0,1-1.33.28,13.33,13.33,0,0,1-2.52.15,14.92,14.92,0,0,1-2-.22l-.06,0a2.07,2.07,0,0,0,.06-.5h.65c.26,0,.3,0,.3-.28v-.18a.93.93,0,0,0,.38-.55c0-.06,0-.13,0-.17s-.12,0-.18,0-.09.12-.18.11a3.53,3.53,0,0,1,.05-.56,6.07,6.07,0,0,1,.12-.84,3.37,3.37,0,0,1,.52.48.34.34,0,0,0,.54,0,4.48,4.48,0,0,1,.67-.47.55.55,0,0,1,.32-.14v.39c0,.41.05.82.08,1.23a1.26,1.26,0,0,1-.66-.1,1.24,1.24,0,0,1-.52-.41s0-.12-.12-.09-.06.11-.05.17a1.11,1.11,0,0,0,.26.57,1.74,1.74,0,0,0,1.2.56c.11.29.11.29.42.29s.89,0,1.33,0l.71-.06Z" transform="translate(0)" fill="#888989"/><path d="M23.33,27A2.6,2.6,0,0,0,22.64,26a9.88,9.88,0,0,0-2.09-1.65,5.4,5.4,0,0,0-.65-.4c-.14-.12-.28,0-.41,0L19,24c-.57.06-1.13.08-1.7.09a1.3,1.3,0,0,0-.44,0,.19.19,0,0,0-.13,0c-.71-.08-1.44-.1-2.15-.22a2.74,2.74,0,0,1-.09-.39l.12,0a11,11,0,0,0,1.41.13,14.65,14.65,0,0,0,2.73,0,7.15,7.15,0,0,0,2-.46,8.2,8.2,0,0,0,1.68-.83,1.57,1.57,0,0,1-.06.53l-.07,0a8.27,8.27,0,0,1-1.42.65l-.53.16.27.13c.4.26.81.48,1.18.77a8.8,8.8,0,0,1,1.37,1.29,2.33,2.33,0,0,1,.51.89,2.31,2.31,0,0,1-.36.25Z" transform="translate(0)" fill="#63442c"/><path d="M9.46,28a.65.65,0,0,1,.13-.47c.09-.14.18-.28.26-.42a.39.39,0,0,1,.2-.2.42.42,0,0,1,.29,0c.1.09.24.1.34.18a3.51,3.51,0,0,1,.8.51s.09.11.17.08,0,.24-.1.34l-.41-.32c-.07-.05-.15-.08-.2,0a.32.32,0,0,0-.1.18c-.13.13-.13.15,0,.27a2.54,2.54,0,0,0,.24.2c.21.19.21.19.37-.05l.09-.11c0,.11,0,.24.11.3v.07c-.09.07-.17.14-.09.27-.3-.09-.59-.19-.88-.3a1.68,1.68,0,0,0-.67-.43c-.16-.18-.25-.19-.43-.06Zm1.18-.24c.22-.22.21-.28-.05-.42l0,0c-.35-.17-.29-.21-.5.16-.14.16-.14.17,0,.25a1.15,1.15,0,0,1,.25.12c.17.09.18.09.29-.09Z" transform="translate(0)" fill="#525353"/><path d="M19,25.61a.29.29,0,0,1,.09-.09,1.27,1.27,0,0,1,1,0,6,6,0,0,1,.9.7l.23.22a.41.41,0,0,0,.17.12.34.34,0,0,0,.2,0,.09.09,0,0,1,.09,0s0,0,0,.06a3.92,3.92,0,0,0-1,1.14c-.16.23-.35.45-.49.7l-.06.13a1.29,1.29,0,0,1-.38.12.92.92,0,0,1,.18-.3,7.79,7.79,0,0,0,.69-.83c.15-.2.35-.4.26-.7a.71.71,0,0,0-.16-.31,4.25,4.25,0,0,0-1.1-.92c-.06,0-.13-.07-.2,0a.21.21,0,0,0,0,.11.14.14,0,0,0,0,.11l0,.06A.84.84,0,0,1,19,25.61Z" transform="translate(0)" fill="#f1a484"/><path d="M19.47,26l0-.06a.21.21,0,0,1,0-.11.16.16,0,0,1,.05-.1c.07-.07.14,0,.2,0a4.21,4.21,0,0,1,1.1.91.77.77,0,0,1,.16.31c.09.3-.11.5-.26.7a6.9,6.9,0,0,1-.69.83.87.87,0,0,0-.18.31,3.88,3.88,0,0,1-.45.14c0-.12.15-.21.15-.34a.77.77,0,0,0,.22-.31.61.61,0,0,0,.15-.26c.11-.11.24-.2.26-.36a1.79,1.79,0,0,0,.37-.54.1.1,0,0,0,0-.07.16.16,0,0,0,0-.07,4.89,4.89,0,0,0-.45-.46c0-.24-.21-.34-.41-.42L19.48,26s0,0,0,0Z" transform="translate(0)" fill="#63442c"/><path d="M13.13,28.66a2.07,2.07,0,0,1-.06.5,8.18,8.18,0,0,1-1.19-.27v-.35h.06a6.88,6.88,0,0,0,1.19.13Z" transform="translate(0)" fill="#525353"/><path d="M19.47,28.55c0,.13-.11.22-.15.34L19,29l0-.34a1.81,1.81,0,0,1,.51-.08Z" transform="translate(0)" fill="#525353"/><path d="M10,28.07a1.71,1.71,0,0,1,.67.43,6,6,0,0,1-.73-.32Z" transform="translate(0)" fill="#f1a484"/><path d="M11.88,28.69v.2l-.34-.09c-.08-.13,0-.2.1-.27S11.78,28.66,11.88,28.69Z" transform="translate(0)" fill="#888989"/><path d="M10,28.07l-.06.11A1.56,1.56,0,0,1,9.57,28C9.75,27.87,9.83,27.89,10,28.07Z" transform="translate(0)" fill="#63442c"/><path d="M13.13,28.66A6.76,6.76,0,0,1,12,28.53h-.06a.57.57,0,0,0-.25-.08c-.15-.06-.09-.2-.11-.31v0a.21.21,0,0,0,0-.16,1.89,1.89,0,0,0,.09-.34,10.52,10.52,0,0,1,.59-2c.15-.32.36-.61.5-.94a.57.57,0,0,0,0-.14.26.26,0,0,0,0-.15.27.27,0,0,0-.09-.12.35.35,0,0,0-.14-.06s-.09,0-.12-.05l-.1-.22c0-.08,0-.09-.11,0a.57.57,0,0,0-.19.22A2.69,2.69,0,0,0,11,24c-.38,0-.76,0-1.14,0-.07,0-.11,0-.14-.09L9.29,23s0-.12-.08-.1,0,.08,0,.12a6.28,6.28,0,0,0,.25.73c.07.16,0,.19-.13.18A13.15,13.15,0,0,1,7,23.65l-.5-.12a.47.47,0,0,1-.25-.11.5.5,0,0,1-.16-.22,10.6,10.6,0,0,1-.71-2.65,9.85,9.85,0,0,1-.14-1.32.65.65,0,0,1,0-.24l.3.12c0,.05,0,.1,0,.16a8.89,8.89,0,0,0,.13,1A11.82,11.82,0,0,0,6.4,23a.63.63,0,0,0,.16.24.57.57,0,0,0,.26.12l.29.05.35.07c.16,0,.16,0,.11-.13-.09-.33-.19-.66-.28-1A11.37,11.37,0,0,1,7,20.48a.22.22,0,0,1,.14,0c.06.45.15.89.24,1.34a12.56,12.56,0,0,0,.46,1.59c0,.08.06.17.16.14s0-.12,0-.17a14.35,14.35,0,0,1-.37-2.84h.18c0,.1,0,.2,0,.3a22.54,22.54,0,0,0,.42,2.59c0,.14.09.19.22.17a2.07,2.07,0,0,0,.5.06c.25,0,.24,0,.17-.22a6.67,6.67,0,0,1-.33-1.77c.1,0,.17,0,.22.12a.87.87,0,0,0,.16.3s0,0,0,0,0,.11,0,.15q.27.63.57,1.23c.11.22.11.22.36.2l.47,0c.11,0,.15,0,.1-.14a6.33,6.33,0,0,1-.31-1.05.26.26,0,0,0-.06-.13,1.63,1.63,0,0,0-.07-.5,11,11,0,0,1-.19-1.39,28.1,28.1,0,0,1,.15-5.19c0-.27,0-.54.08-.82a1.61,1.61,0,0,0-.24.28,4.6,4.6,0,0,1-.74.92.28.28,0,0,1-.09-.17l.13-.14c.32-.36.52-.8.84-1.17a.92.92,0,0,0,.17-.29,1,1,0,0,0,0-.34.08.08,0,0,0,0-.07,2.74,2.74,0,0,0,.08-.5c-.08,0-.1.07-.14.11a12.3,12.3,0,0,1-1.54,1.35l-.09-.2.12-.07a13.07,13.07,0,0,0,1.55-1.43.79.79,0,0,0,.19-.22,5.82,5.82,0,0,0,.24-1s0,0,0,0c.14-.46.29-.91.46-1.36s.26-.65.39-1l.33-.6v0h0a7.6,7.6,0,0,0-2,1.31,9.66,9.66,0,0,0-2,2.78A.9.9,0,0,1,8,12.42c.16-.27.33-.53.49-.81a6.78,6.78,0,0,1,1.09-1.46,8,8,0,0,1,2-1.5,2.69,2.69,0,0,0,1.27-1.11c.06-.09.17-.14.2-.25s.32-.33.51-.48A1,1,0,0,1,14,6.59a1,1,0,0,1,.51,0,3.2,3.2,0,0,0,.52.18.18.18,0,0,0,.07.05,9.18,9.18,0,0,1,1,.5.37.37,0,0,0,.18,0c.22,0,.44,0,.66,0a3.59,3.59,0,0,1,1.29.31s.09.06,0,.1c-.33,0-.63-.17-1-.22a5.49,5.49,0,0,0-.8-.06,1.88,1.88,0,0,0,.53.35c0,.07.06.09.1.12a6.36,6.36,0,0,1,.66.61c.09.1.13.07.19,0a5.66,5.66,0,0,1,1.06-1.23L19.62,7l.57-.32a.42.42,0,0,0-.22,0,2.13,2.13,0,0,0-.81.33A.25.25,0,0,1,19,7,.15.15,0,0,1,19,7a.1.1,0,0,1,0-.06,1.66,1.66,0,0,1,1.24-.4h.14a.28.28,0,0,0,.11-.08c.07,0,.17,0,.18-.08s-.09-.11-.15-.14a2.39,2.39,0,0,0-1.07-.3l-.07,0-.08,0c-.17,0-.33,0-.5,0,0-.11.08-.1.15-.12a2.27,2.27,0,0,1,1,0,2.19,2.19,0,0,1,.9.39.44.44,0,0,0,.15.08,1.44,1.44,0,0,1,.88.55,10.66,10.66,0,0,1,1,1.56A14.68,14.68,0,0,1,24,10.78a26.56,26.56,0,0,1,1.11,4.64,31.89,31.89,0,0,1,.34,4.25,17.21,17.21,0,0,1,0,1.9c0,.55,0,1.1-.12,1.65,0,.08,0,.1.09.08s.08,0,.11,0l.2,0a.23.23,0,0,0,.16-.06A.21.21,0,0,0,26,23a21.17,21.17,0,0,0,.44-3.63,24.81,24.81,0,0,0-.91-7.81,11.87,11.87,0,0,0-1-2.65,7.94,7.94,0,0,0-3.53-3.49A3.84,3.84,0,0,0,19.19,5,4.66,4.66,0,0,0,18,5.2c-.1,0-.25,0-.26.13s.12.17.22.23.11.11.17.16.12.09.12.2l-.07,0A6,6,0,0,0,17,5.33a.28.28,0,0,0-.18,0l-.22-.08,0,0H16.5a5.84,5.84,0,0,0-1.89-.34A9.51,9.51,0,0,0,13.1,5,8.47,8.47,0,0,0,9.62,6.18a10.26,10.26,0,0,0-3.46,3.91,1.09,1.09,0,0,1-.23.39l0,0,0,0a2.88,2.88,0,0,1,.35-.85A9.78,9.78,0,0,1,8.2,7a8.32,8.32,0,0,1,2-1.42,10.68,10.68,0,0,1,4.73-.94A7.17,7.17,0,0,1,16.83,5l.66.21a.14.14,0,0,0,.09,0,.11.11,0,0,0,.08,0A3.55,3.55,0,0,1,20.41,5a7.72,7.72,0,0,1,3.65,2.77A11.08,11.08,0,0,1,25.65,11a22.09,22.09,0,0,1,1,5.1,25.4,25.4,0,0,1,0,4.36,18.21,18.21,0,0,1-.39,2.65c-.07.27-.08.28-.41.34l-.5.07c-.07,0-.11,0-.11.1s-.07.16-.17.18c-.32.06-.63.12-.95.2-.1,0-.14,0-.13-.12a.06.06,0,0,0,0-.06c0-.05.05-.13,0-.13a.06.06,0,0,0-.06,0l0,0,0,.05a.09.09,0,0,0,0,.05s0,.09,0,.14,0,0,0,0a.13.13,0,0,1,0,0l0,0h0c-.46,0-.92.16-1.38.17-.12,0-.14,0-.12-.14.05-.33,0-.33-.29-.31l-1.33.06-.27-.13.53-.16.08,0,1.26-.06c.06,0,.09,0,.1-.1a3.17,3.17,0,0,0,.05-.53,1.57,1.57,0,0,0,.06-.53.74.74,0,0,0,0-.26,3.18,3.18,0,0,0,.05-.62,7.55,7.55,0,0,0,0-.83l0-.29a2.81,2.81,0,0,0,0-.41c0-.05,0-.11,0-.16,0-.59,0-1.18,0-1.78a9.3,9.3,0,0,0,0-1.06,4.85,4.85,0,0,0,0-.66l0-.43a.34.34,0,0,0,0-.2,7.61,7.61,0,0,0-.11-1.07,20.11,20.11,0,0,0-.63-3c-.14-.52-.3-1-.49-1.54A9.37,9.37,0,0,0,21,9.13c0-.07-.06-.08-.12-.05s-.27.12-.4.2a.72.72,0,0,0-.29.2l.21.06.06,0a.13.13,0,0,1,0,.06.08.08,0,0,1,0,0l-.06,0h-.16l-.47-.05a17.41,17.41,0,0,0-4.56.24,1.09,1.09,0,0,1-.26,0h0a.05.05,0,0,1,0,0c0-.05,0-.06.06-.08l.29-.09a3,3,0,0,0-1.08-.37h-.06a0,0,0,0,0,0,0,0,0,0,0,0,0,0,8.23,8.23,0,0,0-.22,1,.36.36,0,0,0,0,.11,21.27,21.27,0,0,0-.27,2.53c-.05.83-.1,1.67-.09,2.51a.14.14,0,0,0,0,.09.19.19,0,0,0,0,.08,2.67,2.67,0,0,0,0,.4,12.39,12.39,0,0,0,.07,1.36c0,.66.11,1.32.2,2a6.83,6.83,0,0,0,.17,1,9.59,9.59,0,0,0,.24,1.3,8.2,8.2,0,0,0,.23,1l.19.75a2.34,2.34,0,0,0,.09.38c0,.1.09.2,0,.29a.64.64,0,0,0-.08.36c-.12.47-.19.95-.29,1.42l0,.29a6.07,6.07,0,0,0-.12.84,5.29,5.29,0,0,0,0,.56,5.42,5.42,0,0,0,0,.57v.18c0,.25,0,.28-.3.28Zm-1.31-5.48a2.13,2.13,0,0,0,.1.49c0,.13.14.08.23.08h0s0,0,0,0v0c-.11-.12-.07-.27-.1-.41a2.83,2.83,0,0,0-.13-.5l-.15-.66c-.09-.42-.19-.84-.28-1.26a.49.49,0,0,0,0-.34.78.78,0,0,0,0,.34c0,.18,0,.36,0,.54,0,.44.1.88.18,1.3A1.71,1.71,0,0,0,11.82,23.18Zm1.36,1.25.28.52c0,.06.08,0,.11,0l.32-.43.06,0c.05,0,.1-.1.16-.05s0,.1,0,.15a1.11,1.11,0,0,0-.14.29c-.06,0-.07.09-.1.13a2.24,2.24,0,0,1-.22.4c-.13.16-.2.17-.36,0a2,2,0,0,0-.13-.25c0-.08-.06-.24-.15-.23s-.13.16-.17.26a.45.45,0,0,0-.11.19A11.6,11.6,0,0,0,11.88,28c0,.12,0,.16.12.18a7.54,7.54,0,0,0,1.57.11c.1,0,.14,0,.12-.14s0-.1,0-.15A12.13,12.13,0,0,1,14,25.8c.09-.41.2-.82.3-1.23,0-.08.06-.15.09-.24s0-.09-.07-.08a6.29,6.29,0,0,1-1.06,0s-.09,0-.11,0,0,.09.06.12Zm5.46-15h.08l.07,0A1.43,1.43,0,0,1,19,9.19a5.62,5.62,0,0,1,1.63-.65c.11,0,.14-.06.08-.16l-.14-.26s0-.12-.08-.14-.17-.18-.13-.32c.2,0,.28.11.38.24a5.67,5.67,0,0,1,.68,1.4c.25.67.5,1.34.71,2a22.43,22.43,0,0,1,1,6.35c0,.71,0,1.43,0,2.15s-.07,1.66-.14,2.49c-.05.49-.1,1-.16,1.47,0,.13,0,.18.15.15l.57-.11a.17.17,0,0,0,.12,0,.34.34,0,0,0,.06-.12c0-.28.11-.56.15-.85.09-.69.18-1.38.25-2.07A13.45,13.45,0,0,0,24.28,19a.28.28,0,0,1,0-.09.2.2,0,0,1,0-.08,1,1,0,0,1,.06.34c0,1.4,0,2.8-.13,4.19,0,.31,0,.3.27.26h.08c.12,0,.16-.07.17-.18.07-.55.1-1.1.14-1.65A33.72,33.72,0,0,0,24.85,17a29,29,0,0,0-.57-3.7A16.8,16.8,0,0,0,22.82,9a11.31,11.31,0,0,0-1.15-2,2.24,2.24,0,0,0-.45-.47.21.21,0,0,0-.12-.05.28.28,0,0,0-.13,0c-.09,0-.19.08-.28.12l-.38.22a6.54,6.54,0,0,0-1.59,1.22c-.18.23-.36.45-.56.67s-.09.17,0,.26a.41.41,0,0,1-.05.09.14.14,0,0,1-.1,0h-.11a.19.19,0,0,1-.09,0L17.64,9a5.63,5.63,0,0,0-.86-.83,7.67,7.67,0,0,0-1.71-1c-.16-.12-.36-.15-.53-.27a.47.47,0,0,0-.55,0,1.44,1.44,0,0,0-.25.18,6.76,6.76,0,0,0-1.3,1.75,14.45,14.45,0,0,0-1.37,3.93,23.83,23.83,0,0,0-.45,3.48,26.87,26.87,0,0,0-.06,3.91,13.78,13.78,0,0,0,.54,3.12c.14.47.15.47.63.59h0c.11,0,.14,0,.11-.11s-.11-.45-.16-.68a23,23,0,0,1-.38-3.61c0-.57,0-1.13-.05-1.69,0-.08,0-.13.1-.14s.05.06.05.1A30.38,30.38,0,0,0,12,22c.13.59.28,1.19.46,1.78,0,.07,0,.16.14.17a5.53,5.53,0,0,0,1.15,0H14c.1,0,.14,0,.11-.14s-.08-.41-.14-.62a27,27,0,0,1-.87-4.8,27.93,27.93,0,0,1-.14-3.3c0-1.2.11-2.4.25-3.6a10.52,10.52,0,0,1,.73-2.92,2.92,2.92,0,0,1,.48-.86c.05,0,.08-.12.17-.07a.45.45,0,0,1,0,.28,6.5,6.5,0,0,0-.27.66c0,.09,0,.14.09.15l.81.15a5.12,5.12,0,0,1,1.52.5s.07.05.12,0a5.22,5.22,0,0,0-2.27-1.34.61.61,0,0,1,.27,0,2.84,2.84,0,0,1,1,.45,3.06,3.06,0,0,1,1.07.89s0,0,0,0H17l.29,0,1.15,0a.28.28,0,0,0,.18,0Zm-3.22.28.73-.1s.1,0,.11,0-.06-.06-.1-.07a7.27,7.27,0,0,0-1.29-.36L14.28,9c-.17,0-.14.13-.17.21s.06.07.11.07a2.7,2.7,0,0,1,1.1.4l0,0ZM19,9.42l.95.05.08,0a3.26,3.26,0,0,1,.8-.43c.12-.05.05-.12,0-.19s0-.1-.13-.08a7.51,7.51,0,0,0-1.66.61s-.06,0-.08.08ZM24.14,22h0c-.1.45-.1.91-.18,1.37,0,0,0,.07,0,.07H24l0-.05a.14.14,0,0,0,0-.09c0-.28,0-.55.05-.82s0-.33,0-.5Zm-15.06.59c.07-.09,0-.16,0-.22Z" transform="translate(0)" fill="#1b5d6c"/><path d="M8,12.42a.81.81,0,0,0,.11.27,1.57,1.57,0,0,0,.18.42,7.12,7.12,0,0,0,.35.74c.05.15.11.3.16.44l.1.21.27.69.11.35c0,.06,0,.13.09.17a.28.28,0,0,0,.08.2,3.2,3.2,0,0,1,.46,1.15.79.79,0,0,1-.09.65,1.06,1.06,0,0,1-.51.38,1.13,1.13,0,0,1-.63,0,.33.33,0,0,0-.24,0,.64.64,0,0,1-.41,0,.6.6,0,0,1-.32-.25,5.76,5.76,0,0,0-.59-.62c-.25-.22-.45-.16-.65.1a1.67,1.67,0,0,0-.25.58,2.59,2.59,0,0,1-.26.94l-.36.26,0,0L5.24,19l-.1-.09A.42.42,0,0,1,5,18.72a.61.61,0,0,1-.07-.24,4.36,4.36,0,0,1,.31-2,.5.5,0,0,0,0-.13l.29-.5a.53.53,0,0,0,.21-.21,2,2,0,0,1,.94-.45.31.31,0,0,0,.19,0h.3c.21,0,.22,0,.14-.2,0,0,0-.08-.05-.12a.5.5,0,0,0,0-.13.44.44,0,0,0-.08-.11c0-.22-.14-.42-.19-.64l-.15-.42c-.06-.25-.17-.48-.23-.73A1.4,1.4,0,0,0,6,12.07a1.31,1.31,0,0,0-.28-.24.43.43,0,0,0-.23-.19c0-.08-.11-.12-.16-.17l-.67-.61a.72.72,0,0,1-.17-.22.51.51,0,0,1,0-.48.53.53,0,0,1,.16-.2.67.67,0,0,1,.23-.1H5l.11.05c.25.18.51.35.77.52l0,0,0,0a3,3,0,0,0,.42.27,5.4,5.4,0,0,0,.68.46,1.27,1.27,0,0,0,.42.25.36.36,0,0,0,.15.12l.11.19A6.14,6.14,0,0,0,8,12.42Zm-.48-.24A.63.63,0,0,0,7.41,12a.69.69,0,0,0-.18-.16,3.17,3.17,0,0,1-.49-.32c-.6-.41-1.19-.84-1.76-1.29,0-.09-.09-.08-.17-.06s-.17.44,0,.55c.5.34.91.79,1.41,1.14a1.77,1.77,0,0,1,.67.88c.26.72.52,1.45.83,2.16.16.36.14.37.51.22h.31c0-.15-.07-.3-.12-.45-.16-.48-.33-1-.5-1.43A8.24,8.24,0,0,0,7.49,12.18Zm1.38,3.65a.57.57,0,0,0-.66-.38.53.53,0,0,0-.47.53,3.2,3.2,0,0,0,.89,1.74.4.4,0,0,0,.45.13.51.51,0,0,0,.39-.47,2.27,2.27,0,0,0-.4-1.3.62.62,0,0,0-.2-.25Zm-1.76-.44a1.51,1.51,0,0,0-1.39.69,3.75,3.75,0,0,0-.44,1.15,4.2,4.2,0,0,0-.12,1.32c0,.12.35.34.45.29l.07-.06a.54.54,0,0,0,.12-.38,2.19,2.19,0,0,1,.4-1.16.78.78,0,0,1,1.09-.17,4.1,4.1,0,0,1,.74.76.18.18,0,0,0,.07.08.14.14,0,0,0,.11,0s.1,0,0-.07A7.86,7.86,0,0,1,7.72,17a1.58,1.58,0,0,1-.21-1.29.22.22,0,0,0,0-.11.22.22,0,0,0,0-.11.16.16,0,0,0-.09-.07.23.23,0,0,0-.11,0Z" transform="translate(0)" fill="#525353"/><path d="M5.54,15.83l-.3.51a1.93,1.93,0,0,1-.08-.58A20,20,0,0,1,5.4,12a1.68,1.68,0,0,1,.09-.32.43.43,0,0,1,.23.19,9.4,9.4,0,0,0-.13,1.29,20.28,20.28,0,0,0,0,2.7Z" transform="translate(0)" fill="#1b5d6c"/><path d="M12,24.15a1,1,0,0,1,.19-.21c.07-.06.09,0,.11,0l.11.23c-.06,0-.09,0-.12.07a2.41,2.41,0,0,0-.36.48c-.29.52-.59,1-.87,1.57-.13.23-.25.47-.36.71-.1-.07-.24-.08-.34-.17A23.24,23.24,0,0,1,12,24.15Z" transform="translate(0)" fill="#63442c"/><path d="M19.48,26l.12.06c.19.08.37.18.4.42a7.31,7.31,0,0,0,.1,1.14c0,.16-.15.25-.26.36,0-.13-.07-.26-.1-.4,0-.35-.08-.71-.11-1.06a.33.33,0,0,0-.05-.15.25.25,0,0,0-.12-.11l-.52-.34-.39-.41c-.09-.17-.12-.17-.21,0s-.16.27-.25.4a.24.24,0,0,1-.1.1.2.2,0,0,1-.13,0,.28.28,0,0,1-.13,0,.31.31,0,0,1-.09-.11,1.24,1.24,0,0,1-.1-.2,2.45,2.45,0,0,0-.52-.86l0-.06s0,0,0-.06h.18a1.11,1.11,0,0,1,.46.52c.08.13.15.27.23.41.15-.21.28-.41.43-.61l.61-.82A.35.35,0,0,0,19,24l.45-.1s-.08.07-.08.12c-.29.35-.56.7-.82,1.08v0a.05.05,0,0,0,0,.06v0a2.11,2.11,0,0,0,.4.39.91.91,0,0,0,.48.36Z" transform="translate(0)" fill="#1b5d6c"/><path d="M19.41,24c0-.06.05-.08.08-.12s.27-.14.41,0C19.73,23.92,19.58,24,19.41,24Z" transform="translate(0)" fill="#f1a484"/><path d="M19.47,28.55a1.81,1.81,0,0,0-.51.08l-.71.06c-.44,0-.89,0-1.33,0s-.31,0-.42-.28l-.12-.7-.09-1.23c0-.13,0-.27,0-.4v-.22q0-.67.06-1.35a.35.35,0,0,1,.06-.14.22.22,0,0,1,.13-.09l.36-.19a1.32,1.32,0,0,1,.44,0,2.2,2.2,0,0,1-.25.17,3.52,3.52,0,0,0-.45.3,1.1,1.1,0,0,0-.07.44,9.52,9.52,0,0,0,0,1.51.1.1,0,0,0,0,.12c0,.28,0,.56,0,.84a3.66,3.66,0,0,0,.1.74c0,.15.12.17.23.16.38,0,.77,0,1.15,0a11.73,11.73,0,0,0,1.57-.12.68.68,0,0,1-.22.31Z" transform="translate(0)" fill="#1b5d6c"/><path d="M16.39,27.74l.12.7a1.74,1.74,0,0,1-1.2-.56,1.25,1.25,0,0,1-.27-.57c0-.06,0-.14.05-.17s.09.05.12.09a1.38,1.38,0,0,0,.52.41,1.35,1.35,0,0,0,.66.1Z" transform="translate(0)" fill="#525353"/><path d="M16.29,25.89v.22a.71.71,0,0,0-.32.14,6.08,6.08,0,0,0-.66.47.34.34,0,0,1-.54,0,4.6,4.6,0,0,0-.52-.47l0-.3a3.91,3.91,0,0,1,.6.4l.11.12c.08.1.15.09.22,0l.22-.14A2.62,2.62,0,0,1,16.29,25.89Z" transform="translate(0)" fill="#525353"/><path d="M14.08,28.19a3.62,3.62,0,0,1,0-.57c.09,0,.12-.06.18-.11s.1-.08.17,0,0,.11,0,.17A1,1,0,0,1,14.08,28.19Z" transform="translate(0)" fill="#525353"/><path d="M14.53,23.48c-.06-.25-.12-.5-.19-.75a.76.76,0,0,1,.16,0,11.78,11.78,0,0,0,4.5.33,9.93,9.93,0,0,0,3.45-1,.5.5,0,0,1,0,.27,8.75,8.75,0,0,1-1.68.83,7.43,7.43,0,0,1-2,.46,15.56,15.56,0,0,1-2.73,0,13.18,13.18,0,0,1-1.41-.12Z" transform="translate(0)" fill="#f1a484"/><path d="M16.9,24.12l-.36.19a.24.24,0,0,0-.13.09.35.35,0,0,0-.06.14,17.62,17.62,0,0,1-1.78,0,.9.9,0,0,1,.08-.36c0-.08-.05-.19,0-.28.72.13,1.44.14,2.16.22a.15.15,0,0,1,.13,0Z" transform="translate(0)" fill="#f1a484"/><path d="M16.64,24.57a2.66,2.66,0,0,1,.45-.29l.25-.18c.57,0,1.13,0,1.7-.09a.32.32,0,0,1-.14.2.39.39,0,0,0-.18,0,6.06,6.06,0,0,1-1.19.36c-.12,0-.26,0-.37.1H17a.44.44,0,0,0-.15-.12.41.41,0,0,0-.19,0Z" transform="translate(0)" fill="#78acd4"/><path d="M22.37,22.86a3.07,3.07,0,0,1-.05.53c0,.06,0,.1-.1.11L21,23.55l-.09,0a9.17,9.17,0,0,0,1.43-.64Z" transform="translate(0)" fill="#39a6bf"/><path d="M10.68,27a7.86,7.86,0,0,1,.36-.71c.28-.53.58-1.06.87-1.58a2.35,2.35,0,0,1,.36-.47s.06-.08.12-.08.07,0,.11,0a.3.3,0,0,1,.14.06.23.23,0,0,1,.1.12.37.37,0,0,1,0,.15.23.23,0,0,1,0,.14c-.14.33-.35.62-.49.94a9.81,9.81,0,0,0-.59,2c-.08,0-.12,0-.17-.07A3.2,3.2,0,0,0,10.68,27Z" transform="translate(0)" fill="#f1a484"/><path d="M10.06,27.44c.21-.38.15-.33.5-.17l0,0c.26.15.27.21.05.43a6.19,6.19,0,0,0-.58-.28Z" transform="translate(0)" fill="#bdbdbd"/><path d="M11.44,28.28c-.16.23-.16.23-.38,0l-.23-.2c-.12-.12-.12-.14,0-.26a.72.72,0,0,1,.24.14,3.27,3.27,0,0,0,.37.28Z" transform="translate(0)" fill="#888989"/><path d="M11.44,28.28a3.27,3.27,0,0,1-.37-.28.79.79,0,0,0-.23-.14.29.29,0,0,1,.1-.18,2.28,2.28,0,0,1,.58.44v0Z" transform="translate(0)" fill="#f9d6c7"/><path d="M10.06,27.44a6.19,6.19,0,0,1,.58.28c-.11.18-.12.18-.29.09a1.15,1.15,0,0,0-.25-.12C9.92,27.61,9.92,27.59,10.06,27.44Z" transform="translate(0)" fill="#888989"/><path d="M11.53,28.12a2.52,2.52,0,0,0-.59-.44c.05-.12.13-.09.2,0l.41.32a.18.18,0,0,1,0,.16Z" transform="translate(0)" fill="#bdbdbd"/><path d="M11.64,28.46a.61.61,0,0,1,.25.08.76.76,0,0,1,0,.15c-.1,0-.14-.14-.24-.16Z" transform="translate(0)" fill="#bdbdbd"/><path d="M19.69,28.24a11.87,11.87,0,0,1-1.57.13c-.39,0-.77,0-1.15,0-.12,0-.23,0-.23-.16H17A9.11,9.11,0,0,0,18.8,28c.12,0,.21-.06.22-.2l.45-.16c.12,0,.17-.1.13-.23s-.13-.3-.18-.45c-.11-.33-.16-.36-.49-.33a4.61,4.61,0,0,1,0-.74l.52.33a.57.57,0,0,1,.11.11.3.3,0,0,1,.05.15c0,.36.07.71.12,1.07a2.92,2.92,0,0,0,.1.4.82.82,0,0,1-.16.25Z" transform="translate(0)" fill="#78acd4"/><path d="M20.09,27.62A7.3,7.3,0,0,1,20,26.48a4.89,4.89,0,0,1,.45.46.15.15,0,0,1,0,.07.09.09,0,0,1,0,.07,1.83,1.83,0,0,1-.38.54Z" transform="translate(0)" fill="#fdfdfd"/><path d="M19.48,26v0S19.49,26,19.48,26Z" transform="translate(0)" fill="#f1a484"/><path d="M22.45,22.07a9.93,9.93,0,0,1-3.45,1,11.78,11.78,0,0,1-4.5-.33.76.76,0,0,0-.16,0,6.64,6.64,0,0,1-.23-1,9.31,9.31,0,0,1-.24-1.3,2.69,2.69,0,0,0,1-.05,1,1,0,0,0,.86-.8,6.1,6.1,0,0,0,.12-1.81,2.59,2.59,0,0,0-.16-.72,1.57,1.57,0,0,0-.47-.64,1.44,1.44,0,0,0-.74-.31,3,3,0,0,0-1,0,2.67,2.67,0,0,1,0-.4,2.17,2.17,0,0,1,1.42.12,5.52,5.52,0,0,1,.54.28s.06,0,.08,0,0-.06,0-.08L15.36,16a2.62,2.62,0,0,0-1.94-.42c0-.84.05-1.68.1-2.52a17.81,17.81,0,0,1,.27-2.52.53.53,0,0,1,0-.12h.06A10.29,10.29,0,0,1,16.21,10c.53,0,1.06-.08,1.59-.1a9.08,9.08,0,0,1,1.28.05c.74.06,1.49.06,2.23.09.19.51.35,1,.49,1.54a21.73,21.73,0,0,1,.63,3c.05.35.09.71.11,1.07a2.56,2.56,0,0,0-2.15.32c-.07,0-.21.08-.15.17s.14,0,.21-.07a2.29,2.29,0,0,1,2.11-.22l0,.43a2.31,2.31,0,0,0-1.35-.15,1.49,1.49,0,0,0-.8.38,1.7,1.7,0,0,0-.56,1.22A5.32,5.32,0,0,0,20,19.49a1.08,1.08,0,0,0,.77.87,2.56,2.56,0,0,0,1,.1.36.36,0,0,1,.25,0,.43.43,0,0,1,.2.15.42.42,0,0,1-.27.16.51.51,0,0,0-.28-.17.5.5,0,0,0-.32,0c-.06,0-.12.07-.12.14a.19.19,0,0,0,0,.09.16.16,0,0,0,.08.06.61.61,0,0,0,.18.05,1.65,1.65,0,0,0,.32,0,.35.35,0,0,0,.08.22.34.34,0,0,0,.19.14,1.91,1.91,0,0,0,.47.12A2.56,2.56,0,0,1,22.45,22.07Zm-1.83-7h.27a1.76,1.76,0,0,0,.78-.19.29.29,0,0,0,0-.53,1,1,0,0,0-.24-.09,1.54,1.54,0,0,0-1,.11,1.12,1.12,0,0,0-.33.2c-.08.09-.16.19-.11.32a.24.24,0,0,0,.12.14.29.29,0,0,0,.18.05Zm-5.57,0h.28a.3.3,0,0,0,.19,0,.31.31,0,0,0,.13-.15.3.3,0,0,0-.15-.35,1.6,1.6,0,0,0-.62-.29,1.78,1.78,0,0,0-.69,0c-.24.07-.35.19-.36.35s.11.26.34.34a2.67,2.67,0,0,0,.88.12Zm3.18,6.78a1.47,1.47,0,0,0,.74-.18c.05,0,.1-.06.1-.13a.15.15,0,0,0-.14-.12.45.45,0,0,0-.3,0,1.1,1.1,0,0,1-.74.05,2,2,0,0,1-.64-.33c-.07,0-.17-.07-.23,0s0,.15.07.2a1.67,1.67,0,0,0,.52.36,1.48,1.48,0,0,0,.62.11Zm-3.69-.77a.41.41,0,0,0,.24,0c.05,0,.12-.08.12-.15a.16.16,0,0,0-.05-.09.16.16,0,0,0-.08-.06.69.69,0,0,0-.24-.05.53.53,0,0,0-.24.06.14.14,0,0,0-.09.14.16.16,0,0,0,0,.09.13.13,0,0,0,.07.06.51.51,0,0,0,.24,0Z" transform="translate(0)" fill="#f9d6c7"/><path d="M13.78,24a6.31,6.31,0,0,1-1.15,0c-.1,0-.12-.1-.13-.18-.18-.58-.33-1.18-.46-1.77a29.26,29.26,0,0,1-.64-4.35s0-.11-.05-.1-.1.05-.1.13c0,.57,0,1.13.05,1.69A21.91,21.91,0,0,0,11.69,23c0,.23.1.46.15.68s0,.14-.1.11h0c-.48-.12-.48-.12-.63-.6a13.7,13.7,0,0,1-.54-3.11,28.5,28.5,0,0,1,.06-3.92,25.34,25.34,0,0,1,.45-3.47,14.8,14.8,0,0,1,1.37-3.93A6.47,6.47,0,0,1,13.74,7,1.64,1.64,0,0,1,14,6.85a.48.48,0,0,1,.55,0,5.12,5.12,0,0,1,.52.27.2.2,0,0,1-.15,0,.37.37,0,0,0-.18,0,.28.28,0,0,0-.15.08,2,2,0,0,0-.57.61,7.91,7.91,0,0,0-1.18,2.88c-.18.83-.29,1.66-.41,2.5a17.54,17.54,0,0,0-.18,2,28.67,28.67,0,0,0,.08,2.93,19,19,0,0,0,.31,2.12,16.44,16.44,0,0,0,.68,2.4C13.48,23.15,13.6,23.59,13.78,24Z" transform="translate(0)" fill="#68c7df"/><path d="M24.33,18.85a.18.18,0,0,0,0,.09.14.14,0,0,0,0,.09,13.45,13.45,0,0,1-.16,1.68c-.07.69-.16,1.38-.26,2.07,0,.29-.1.57-.15.85a.17.17,0,0,1-.17.17l-.57.11c-.14,0-.17,0-.15-.15.06-.49.12-1,.15-1.47.08-.83.11-1.66.14-2.49s0-1.44,0-2.15a22.43,22.43,0,0,0-1-6.35c-.21-.67-.46-1.34-.71-2a5.37,5.37,0,0,0-.69-1.4c-.09-.13-.18-.28-.38-.25a1,1,0,0,0-.49.11,6.43,6.43,0,0,0-1.47,1.12c-.07.07-.14.16-.25.16s-.1-.15,0-.25l.56-.67A6.25,6.25,0,0,1,20.3,6.89l.38-.23a.14.14,0,0,0,.07.1,3.94,3.94,0,0,1,.62.67,8.22,8.22,0,0,1,1,1.83,19.42,19.42,0,0,1,.94,2.65c.17.69.33,1.38.51,2.07A6.65,6.65,0,0,1,24,15c.07.77.18,1.52.23,2.29C24.29,17.78,24.34,18.32,24.33,18.85Z" transform="translate(0)" fill="#68c7df"/><path d="M25.55,23.27s-.07,0-.11,0-.1,0-.09-.08c.08-.54.07-1.1.12-1.65a17.18,17.18,0,0,0,0-1.9,31.61,31.61,0,0,0-.34-4.24A26.45,26.45,0,0,0,24,10.78a15.49,15.49,0,0,0-1.12-2.41,11.13,11.13,0,0,0-1-1.55A1.44,1.44,0,0,0,21,6.26a.28.28,0,0,1-.15-.08,2.49,2.49,0,0,0-.9-.39,2.31,2.31,0,0,0-1,0c-.06,0-.14,0-.14.11L18.8,6a.21.21,0,0,0-.09.13.18.18,0,0,0,0,.16c.07.11.19.08.28,0A2.14,2.14,0,0,1,20,6.26a1.25,1.25,0,0,1,.6.16.21.21,0,0,1-.11.07.2.2,0,0,1-.13,0,1.63,1.63,0,0,0-1.25.4s0,0,0,0A.17.17,0,0,0,19,7c-.05.11,0,.15.1.15a.48.48,0,0,0,.2-.07c.1,0,.19-.15.33-.14l-.58.44A5.15,5.15,0,0,0,18,8.63c-.06.09-.1.13-.19,0a5.51,5.51,0,0,0-.67-.61S17.05,8,17,7.93a2.84,2.84,0,0,1,.92.18c.14,0,.22,0,.27-.11a.39.39,0,0,0,0-.14c.09,0,0-.07,0-.11s0-.3,0-.46a.65.65,0,0,1,0-.24l.18.09s.06,0,.09,0,0-.06,0-.08a2.35,2.35,0,0,0-.32-.23c.08-.23-.08-.38-.19-.54a1.53,1.53,0,0,0-.68-.72,2.69,2.69,0,0,1-.53-.28.27.27,0,0,1,.18,0,5.28,5.28,0,0,1,1.2.57l.07,0a.19.19,0,0,0-.11-.19c-.06-.05-.15-.08-.18-.17a.53.53,0,0,1,.26-.19,3.47,3.47,0,0,1,1.11-.11A4.32,4.32,0,0,1,21,5.84a7.89,7.89,0,0,1,2,1.7,6.56,6.56,0,0,1,.68,1,12.11,12.11,0,0,1,1,2,18.09,18.09,0,0,1,.87,3.06c.21,1.12.4,2.25.51,3.39.07.71.06,1.42.06,2.14A12.09,12.09,0,0,1,26,21.44c-.08.49-.14,1-.26,1.47a.48.48,0,0,1-.07.2.54.54,0,0,1-.14.16Z" transform="translate(0)" fill="#39a6bf"/><path d="M13.78,24c-.18-.43-.3-.87-.46-1.3a15.28,15.28,0,0,1-.68-2.4,18.85,18.85,0,0,1-.32-2.11c-.07-1-.1-1.95-.08-2.93a17.54,17.54,0,0,1,.18-2c.13-.83.24-1.68.42-2.5A7.89,7.89,0,0,1,14,7.84a2.08,2.08,0,0,1,.57-.61.35.35,0,0,1,.16-.08.32.32,0,0,1,.17,0,.22.22,0,0,0,.16,0,7.6,7.6,0,0,1,1.7,1,5.63,5.63,0,0,1,.87.82.35.35,0,0,1-.16.18.49.49,0,0,1-.24.08c-.13-.1-.2-.24-.32-.34a7.1,7.1,0,0,0-1.59-1,1.63,1.63,0,0,0-.75-.18c-.09,0-.13,0-.17.07a2.53,2.53,0,0,0-.48.86,10.45,10.45,0,0,0-.74,2.92c-.14,1.19-.21,2.4-.25,3.6a30.37,30.37,0,0,0,.15,3.3,26.14,26.14,0,0,0,.87,4.8c0,.2.09.41.14.62s0,.14-.12.14Z" transform="translate(0)" fill="#c5f1fa"/><path d="M5.93,18.91A2.64,2.64,0,0,0,6.19,18a1.57,1.57,0,0,1,.25-.58c.2-.26.4-.32.65-.09a4.35,4.35,0,0,1,.59.62.64.64,0,0,0,.32.24.58.58,0,0,0,.41,0,.49.49,0,0,1,.24,0,1,1,0,0,0,.63,0,1.11,1.11,0,0,0,.51-.37.85.85,0,0,0,.09-.66,3.42,3.42,0,0,0-.46-1.14.32.32,0,0,1-.08-.2,5,5,0,0,0,.74-.92,1.31,1.31,0,0,1,.24-.28c0,.27-.05.55-.08.82a28,28,0,0,0-.16,5.18,13.08,13.08,0,0,0,.19,1.4.92.92,0,0,1-.21-.13,7.19,7.19,0,0,1-1.34-1.36c-.05-.07,0-.1,0-.13a3.62,3.62,0,0,0,.43-.24.19.19,0,0,0,.1-.17.16.16,0,0,0-.06-.08.12.12,0,0,0-.09,0,.41.41,0,0,0-.19,0,.48.48,0,0,0-.18.07,2,2,0,0,1-.68.31,1.89,1.89,0,0,1-.75,0,1.61,1.61,0,0,1-.74-.31A3.11,3.11,0,0,1,5.93,18.91ZM6.57,18a.64.64,0,0,1,.33.1.67.67,0,0,1,.22.25.88.88,0,0,1,.1.63.17.17,0,0,0,.14.21h.11l.1,0a.23.23,0,0,0,.07-.07.42.42,0,0,0,0-.1,1.13,1.13,0,0,0-.18-.8,1.07,1.07,0,0,0-.69-.44.55.55,0,0,0-.37.07.09.09,0,0,0-.06.11c0,.05.06.06.1.06h.09Z" transform="translate(0)" fill="#f1a484"/><path d="M24.33,18.85c0-.53,0-1.07-.07-1.61-.05-.76-.16-1.52-.23-2.28a6.4,6.4,0,0,0-.19-1l-.51-2.07a19,19,0,0,0-.94-2.65,8,8,0,0,0-1-1.83,3.6,3.6,0,0,0-.62-.67.23.23,0,0,1-.07-.1A2.52,2.52,0,0,0,21,6.55a.28.28,0,0,1,.13,0,.21.21,0,0,1,.12.05,2,2,0,0,1,.44.47,11.36,11.36,0,0,1,1.16,2,16.73,16.73,0,0,1,1.46,4.29A27.22,27.22,0,0,1,24.84,17a33.56,33.56,0,0,1,.08,4.81c0,.55-.07,1.1-.14,1.65,0,.12-.05.18-.18.18h-.07c-.3.05-.3.05-.28-.25.1-1.4.12-2.8.14-4.19a1.13,1.13,0,0,0-.06-.36Z" transform="translate(0)" fill="#c5f1fa"/><path d="M16.82,5.29a3,3,0,0,0,.53.28,1.53,1.53,0,0,1,.68.72l-.28-.09a9.27,9.27,0,0,0-1.26-.41,9.54,9.54,0,0,0-2.77-.19A8.06,8.06,0,0,0,11.9,6,8.82,8.82,0,0,0,9.69,7a1.37,1.37,0,0,0-.54.44A1,1,0,0,0,9,7.5,13.69,13.69,0,0,0,6.83,9.81a3,3,0,0,0-.49.95,1.88,1.88,0,0,1-.42-.27,1.28,1.28,0,0,0,.24-.39A10.08,10.08,0,0,1,9.61,6.19,8.52,8.52,0,0,1,13.09,5a9.64,9.64,0,0,1,1.52-.12,5.78,5.78,0,0,1,1.88.34h0l0,0h0Z" transform="translate(0)" fill="#89e0f4"/><path d="M22.15,20.65a.45.45,0,0,0-.2-.16.52.52,0,0,0-.25,0,2.76,2.76,0,0,1-1-.09,1,1,0,0,1-.76-.88,5,5,0,0,1-.08-1.77,1.71,1.71,0,0,1,.56-1.23,1.55,1.55,0,0,1,.81-.37,2.21,2.21,0,0,1,1.34.15,3.5,3.5,0,0,1,0,.65l-.42-.14A3.53,3.53,0,0,1,22,20.2a1.37,1.37,0,0,0,.57-.27,1.89,1.89,0,0,1,0,.41h-.26c-.07,0-.12,0-.06.11l.1.21s0,.06,0,.1,0,.09,0,.1-.06,0-.07-.07a.26.26,0,0,0-.11-.14Zm-.25-1.81c0-.19,0-.19,0-.21a.23.23,0,0,0-.18,0,.25.25,0,0,0-.14.13.42.42,0,0,1-.13.22.39.39,0,0,1-.25.08c-.24,0-.4-.07-.45-.27s-.11-.14-.23-.12-.1.11-.09.19a1.46,1.46,0,0,0,.42.9.44.44,0,0,0,.18.12.46.46,0,0,0,.23,0,.39.39,0,0,0,.21-.06.5.5,0,0,0,.17-.15,1.39,1.39,0,0,0,.29-.85Zm-.68-1.47a.79.79,0,0,0,.1.37.33.33,0,0,0,.12.14.32.32,0,0,0,.18.06.25.25,0,0,0,.16-.06.23.23,0,0,0,.09-.14.86.86,0,0,0,.05-.39.84.84,0,0,0-.14-.37.13.13,0,0,0-.06-.07l-.09,0a.14.14,0,0,0-.09,0l-.09,0C21.26,17,21.25,17.2,21.22,17.37Z" transform="translate(0)" fill="#63442c"/><path d="M25.55,23.27a.54.54,0,0,0,.14-.16.48.48,0,0,0,.07-.2c.12-.48.18-1,.27-1.47a13.92,13.92,0,0,0,.16-2.32c0-.72,0-1.43-.06-2.14-.12-1.14-.3-2.27-.52-3.39a17.18,17.18,0,0,0-.86-3.06,12.16,12.16,0,0,0-1-2,6.5,6.5,0,0,0-.67-1,8.06,8.06,0,0,0-2-1.7,4.32,4.32,0,0,0-1.67-.58,3.44,3.44,0,0,0-1.11.11.46.46,0,0,0-.26.19c-.1,0-.24-.11-.22-.23s.16-.1.26-.13A5.16,5.16,0,0,1,19.19,5a3.84,3.84,0,0,1,1.75.46,8,8,0,0,1,3.53,3.49,11.59,11.59,0,0,1,1,2.65,24.84,24.84,0,0,1,.91,7.81A21.05,21.05,0,0,1,26,23a.21.21,0,0,1-.07.15.24.24,0,0,1-.16.07A1.2,1.2,0,0,0,25.55,23.27Z" transform="translate(0)" fill="#89e0f4"/><path d="M13.43,16.13a3,3,0,0,1,1,0,1.5,1.5,0,0,1,1.2.95,2.27,2.27,0,0,1,.16.72,5.5,5.5,0,0,1-.12,1.81,1,1,0,0,1-.85.8,2.74,2.74,0,0,1-1,.05,7.86,7.86,0,0,1-.17-1c-.08-.65-.15-1.31-.2-2a12.27,12.27,0,0,1-.06-1.36ZM14,18.62c-.18,0-.18,0-.18.09a1.48,1.48,0,0,0,.3,1,.5.5,0,0,0,.15.14.76.76,0,0,0,.2.06.5.5,0,0,0,.21,0,.52.52,0,0,0,.18-.1,1.48,1.48,0,0,0,.46-.94c0-.08,0-.18-.1-.19s-.19,0-.22.11a.38.38,0,0,1-.44.28.41.41,0,0,1-.26-.07.36.36,0,0,1-.13-.24c0-.11-.08-.15-.17-.12Zm.59-1.33a.85.85,0,0,0,.12.54.27.27,0,0,0,.11.1.26.26,0,0,0,.28,0,.35.35,0,0,0,.11-.1.75.75,0,0,0-.08-.81.21.21,0,0,0-.11-.08.3.3,0,0,0-.26,0,.22.22,0,0,0-.1.09.42.42,0,0,0-.07.24Z" transform="translate(0)" fill="#63442c"/><path d="M18.3,7a1.06,1.06,0,0,0,0,.25.71.71,0,0,1-.25,0,4.57,4.57,0,0,0-.63-.19,9.75,9.75,0,0,0-1.85-.29,1,1,0,0,0-.49,0,3.24,3.24,0,0,1-.52-.19,1,1,0,0,0-1,.18c-.18.15-.32.34-.5.48l-.07,0a10.59,10.59,0,0,0-2.15,1,7.25,7.25,0,0,0-2.06,1.8A12.17,12.17,0,0,0,7.7,11.79l-.11-.19L8,10.71a7.75,7.75,0,0,1,2.64-3.17,7.24,7.24,0,0,1,2-.9,8.05,8.05,0,0,1,3.2-.37,5.9,5.9,0,0,1,1.71.39A3.31,3.31,0,0,1,18.3,7Z" transform="translate(0)" fill="#89e0f4"/><path d="M8.61,13.85a7.12,7.12,0,0,1-.35-.74c.11-.18.22-.36.32-.55a7.81,7.81,0,0,1,1.42-2,10.43,10.43,0,0,1,1.2-1,3.6,3.6,0,0,1,.57-.39l-.39,1c-.17.45-.32.9-.45,1.36l0,0a.92.92,0,0,0-.31.24c-.56.55-1.11,1.11-1.65,1.67a3.38,3.38,0,0,0-.31.35Z" transform="translate(0)" fill="#39a6bf"/><path d="M7.7,11.78a13.88,13.88,0,0,1,1.08-1.66,7.35,7.35,0,0,1,2.06-1.79A11,11,0,0,1,13,7.3l.07,0c0,.11-.14.16-.2.26A2.75,2.75,0,0,1,11.6,8.65a7.92,7.92,0,0,0-2,1.49,6.84,6.84,0,0,0-1.09,1.47c-.16.27-.32.54-.49.81a5.11,5.11,0,0,1-.27-.64Z" transform="translate(0)" fill="#39a6bf"/><path d="M14.58,24.51a17.42,17.42,0,0,0,1.77,0,12.18,12.18,0,0,0-.05,1.35,2.36,2.36,0,0,0-.86.41l-.23.13a1.74,1.74,0,0,1,0-.39c0-.05.06-.1,0-.13s-.11,0-.14.07l-.23.34a3.85,3.85,0,0,0-.6-.39C14.39,25.46,14.46,25,14.58,24.51Z" transform="translate(0)" fill="#f9d6c7"/><path d="M13.7,28.19c0,.09,0,.14-.12.14A6.84,6.84,0,0,1,12,28.21c-.1,0-.15-.06-.12-.18a11.09,11.09,0,0,1,.8-2.63.62.62,0,0,1,.12-.19c0,.09.09.19.15.29s.11.1.17,0l0-.06a.11.11,0,0,1,.08,0c.16.13.23.12.36,0a3.11,3.11,0,0,0,.22-.4s0-.1.09-.13a.21.21,0,0,1,0,.11c-.1.47-.21.94-.35,1.41l0-.1a.48.48,0,0,0-.42-.51.45.45,0,0,0-.28,0,.53.53,0,0,0-.23.16.47.47,0,0,0-.14.29.56.56,0,0,0,0,.31.43.43,0,0,0,.19.21.42.42,0,0,0,.27.07.91.91,0,0,0,.54-.21.86.86,0,0,1,0,.16c0,.38-.1.75-.13,1.12s0,.24.21.27Z" transform="translate(0)" fill="#78acd4"/><path d="M21.3,10c-.74,0-1.49,0-2.23-.1a9.08,9.08,0,0,0-1.28-.05c-.53,0-1.06.09-1.59.1a9.77,9.77,0,0,0-2.33.43h-.06c0-.35.16-.68.22-1,0,0,0,0,0,0l0,0h.06a3,3,0,0,1,1.08.37l-.29.09s-.07,0-.06.08l0,0h0l.27,0a17.35,17.35,0,0,1,4.55-.24l.47,0a.49.49,0,0,0,.17,0s0,0,.05,0,0,0,0-.05a.14.14,0,0,0,0-.06l-.05,0-.21-.06a.63.63,0,0,1,.28-.2l.4-.2c.07,0,.1,0,.13,0a8.63,8.63,0,0,1,.3.9Z" transform="translate(0)" fill="#f1a484"/><path d="M5.93,18.91a3.14,3.14,0,0,0,.68.94,1.67,1.67,0,0,0,.74.31,2,2,0,0,0,.74,0,1.83,1.83,0,0,0,.68-.31A.45.45,0,0,1,9,19.77a.4.4,0,0,1,.19,0l.1,0a.41.41,0,0,1,0,.09c0,.08,0,.13-.1.17a2.18,2.18,0,0,1-.43.22c-.07,0-.08.07,0,.14a7.44,7.44,0,0,0,1.33,1.36.94.94,0,0,0,.22.12,1.73,1.73,0,0,1,.07.5,5.21,5.21,0,0,1-.55-.36,8.14,8.14,0,0,1-1.34-1.28.64.64,0,0,0-.67-.21H7.62l-.5-.06a.27.27,0,0,0-.15,0,3.83,3.83,0,0,1-.75-.39,2.38,2.38,0,0,1-.65-.94Z" transform="translate(0)" fill="#63442c"/><path d="M7.79,20.57c.25,0,.45-.06.66.2a8.1,8.1,0,0,0,1.34,1.28,4.17,4.17,0,0,0,.56.37.21.21,0,0,1,.05.13,6.36,6.36,0,0,0,.32,1.05c0,.11,0,.15-.1.14l-.47,0c-.15-.35-.29-.69-.43-1a.55.55,0,0,0-.15-.24l-.39-.3,0,0a1.43,1.43,0,0,1-.16-.3.18.18,0,0,0-.22-.12,3.7,3.7,0,0,1-.37-.42,1.22,1.22,0,0,0-.4-.35c0,.11.06.21.08.31a13.84,13.84,0,0,1,.24,1.57c0,.27.09.55.12.82-.14,0-.19,0-.22-.16a25.62,25.62,0,0,1-.43-2.6Z" transform="translate(0)" fill="#39a6bf"/><path d="M5.57,19.15a2.38,2.38,0,0,0,.65.94c.08.41.23.8.33,1.2s.21,1.06.38,1.57a3.89,3.89,0,0,1,.18.58l-.29-.05a.57.57,0,0,1-.26-.12A.54.54,0,0,1,6.4,23a11.87,11.87,0,0,1-.74-2.73,9.06,9.06,0,0,1-.13-1c0-.05,0-.11,0-.16Z" transform="translate(0)" fill="#89e0f4"/><path d="M11.77,9.22a3.6,3.6,0,0,0-.57.39,8.84,8.84,0,0,0-1.2,1,7.81,7.81,0,0,0-1.42,2c-.1.18-.21.36-.32.54a1.57,1.57,0,0,1-.18-.42,9.66,9.66,0,0,1,2-2.78,7.82,7.82,0,0,1,2-1.3l0,0C12,8.83,11.88,9,11.77,9.22Z" transform="translate(0)" fill="#68c7df"/><path d="M14.58,7.71a1.63,1.63,0,0,1,.75.18,7.1,7.1,0,0,1,1.59,1c.12.1.19.24.32.34s.08.12.07.2a1.45,1.45,0,0,1-.29,0H17s0,0,0,0a3.17,3.17,0,0,0-1.07-.89,2.84,2.84,0,0,0-1-.45.61.61,0,0,0-.27,0,5.09,5.09,0,0,1,2.27,1.35c-.05.06-.09,0-.12,0A5.12,5.12,0,0,0,15.18,9l-.8-.15c-.11,0-.13-.05-.1-.15A6.5,6.5,0,0,1,14.55,8a.45.45,0,0,0,0-.28Z" transform="translate(0)" fill="#68c7df"/><path d="M8.61,13.85a3.38,3.38,0,0,1,.31-.35l1.65-1.68a.79.79,0,0,1,.31-.23,5.5,5.5,0,0,1-.24,1,.68.68,0,0,1-.18.23,12.43,12.43,0,0,1-1.57,1.42l-.11.06C8.72,14.15,8.66,14,8.61,13.85Z" transform="translate(0)" fill="#68c7df"/><path d="M7.11,23.43a4.3,4.3,0,0,0-.18-.58c-.17-.51-.25-1-.38-1.56s-.25-.79-.33-1.2a5.34,5.34,0,0,0,.75.39,11.09,11.09,0,0,0,.32,1.9c.09.34.19.67.28,1,0,.15,0,.15-.12.12Z" transform="translate(0)" fill="#39a6bf"/><path d="M8.44,23.63a5.59,5.59,0,0,0-.12-.82c-.05-.53-.13-1.06-.23-1.58,0-.1-.05-.19-.08-.31a1.48,1.48,0,0,1,.4.35,3.67,3.67,0,0,0,.37.43,6.6,6.6,0,0,0,.33,1.76c.07.25.08.25-.17.23A2.07,2.07,0,0,1,8.44,23.63Z" transform="translate(0)" fill="#89e0f4"/><path d="M17.31,9.43c0-.08-.06-.13-.07-.2a.49.49,0,0,0,.24-.08A.35.35,0,0,0,17.64,9l.17.16.1,0a.2.2,0,0,0,.11,0A.28.28,0,0,0,18.17,9c.12,0,.18-.09.25-.17A6.44,6.44,0,0,1,19.9,7.76a.89.89,0,0,1,.48-.11c0,.14.09.21.14.32s-.09.09-.15.11a8.68,8.68,0,0,0-.95.51,4.08,4.08,0,0,0-1,.81Z" transform="translate(0)" fill="#89e0f4"/><path d="M15.06,6.81a1.16,1.16,0,0,1,.49,0,9.75,9.75,0,0,1,1.85.29,4.57,4.57,0,0,1,.63.19.71.71,0,0,0,.25,0c0,.15.08.31,0,.46A3.58,3.58,0,0,0,17,7.45c-.22,0-.44,0-.66,0a.37.37,0,0,1-.18,0,9.18,9.18,0,0,0-1-.5.18.18,0,0,1-.07-.05Z" transform="translate(0)" fill="#68c7df"/><path d="M13.57,26.38c.15-.47.25-.94.36-1.41v-.11a1.11,1.11,0,0,1,.14-.29h.21c-.1.41-.21.82-.3,1.23A10.63,10.63,0,0,0,13.71,28c0,.05,0,.1,0,.15l-.12,0c-.22,0-.24,0-.21-.27s.08-.75.13-1.12a.86.86,0,0,0,0-.16Z" transform="translate(0)" fill="#a5d6fc"/><path d="M7.11,20.51l.5.06A14.25,14.25,0,0,0,8,23.4c0,.06.09.15,0,.18s-.13-.07-.16-.14a12.7,12.7,0,0,1-.46-1.6C7.26,21.4,7.17,21,7.11,20.51Z" transform="translate(0)" fill="#39a6bf"/><path d="M9.14,15.19l-.27-.69a12.31,12.31,0,0,0,1.53-1.35s.07-.1.15-.12a3.86,3.86,0,0,1-.09.51l0,.07h0l0,0c-.23.27-.45.57-.67.85S9.32,15,9.14,15.19Z" transform="translate(0)" fill="#39a6bf"/><path d="M22.58,19.93a1.43,1.43,0,0,1-.57.27,3.53,3.53,0,0,0,.18-3.42l.42.14a9.38,9.38,0,0,1,0,1.06c0,.59,0,1.19,0,1.79C22.6,19.82,22.58,19.87,22.58,19.93Z" transform="translate(0)" fill="#f9d6c7"/><path d="M15.42,9.68h-.05l0,0a2.55,2.55,0,0,0-1.1-.39c-.05,0-.15,0-.11-.08s0-.24.17-.21l.59.13a9.48,9.48,0,0,1,1.29.36s.11,0,.1.08-.07,0-.11,0Z" transform="translate(0)" fill="#68c7df"/><path d="M19,9.42a.09.09,0,0,1,.08-.08,7.7,7.7,0,0,1,1.66-.61c.09,0,.12,0,.13.08S21,9,20.85,9a3.24,3.24,0,0,0-.8.43s-.05,0-.08,0Z" transform="translate(0)" fill="#68c7df"/><path d="M20.55,6.42a1.32,1.32,0,0,0-.61-.16,2.09,2.09,0,0,0-.93.07c-.1,0-.22.06-.29,0a.3.3,0,0,1,0-.16A.21.21,0,0,1,18.8,6l.05-.07c.17,0,.33,0,.5,0l.08,0,.07,0a2.35,2.35,0,0,1,1.07.29c.06,0,.16.07.15.14S20.61,6.4,20.55,6.42Z" transform="translate(0)" fill="#68c7df"/><path d="M20.6,8.12c0,.09.09.17.14.26s0,.13-.08.16A5.41,5.41,0,0,0,19,9.19l-.24.15s0,0-.06,0a.12.12,0,0,1-.08,0,.24.24,0,0,1,.09-.13,5.06,5.06,0,0,1,1.41-1A1,1,0,0,1,20.6,8.12Z" transform="translate(0)" fill="#68c7df"/><path d="M9.14,15.19c.18-.23.35-.47.53-.69s.43-.58.68-.85c0,0,0,0,0,0l0,0a.82.82,0,0,1,0,.35,1.05,1.05,0,0,1-.17.29c-.32.36-.53.8-.84,1.17l-.13.14Z" transform="translate(0)" fill="#68c7df"/><path d="M18.26,7.85a.83.83,0,0,1,0,.15c0,.13-.13.15-.27.1A2.59,2.59,0,0,0,17,7.93a2.07,2.07,0,0,1-.53-.36,5.29,5.29,0,0,1,.8.06C17.63,7.68,17.93,7.83,18.26,7.85Z" transform="translate(0)" fill="#89e0f4"/><path d="M22.15,20.65a.28.28,0,0,1,.11.13s0,.09.07.08,0-.06,0-.1,0-.07,0-.1l.2,0a7.81,7.81,0,0,1,0,.83,1.88,1.88,0,0,1-.48-.12.43.43,0,0,1-.19-.14.34.34,0,0,1-.07-.22l.11-.16a.55.55,0,0,0,.27-.17Z" transform="translate(0)" fill="#f1a484"/><path d="M9.19,22.14l.38.29a.44.44,0,0,1,.15.25c.15.34.29.69.43,1-.25,0-.25,0-.35-.19q-.32-.6-.57-1.23C9.2,22.24,9.16,22.2,9.19,22.14Z" transform="translate(0)" fill="#89e0f4"/><path d="M22.55,15.83a2.32,2.32,0,0,0-2.11.21c-.07,0-.17.15-.21.08s.08-.13.15-.17a2.56,2.56,0,0,1,2.15-.32.44.44,0,0,1,0,.2Z" transform="translate(0)" fill="#63442c"/><path d="M13.41,15.56a3.14,3.14,0,0,1,1.06,0,2.89,2.89,0,0,1,.88.39l.09.07s0,.05,0,.08-.05,0-.08,0a5.44,5.44,0,0,0-.54-.27,2.17,2.17,0,0,0-1.42-.12.29.29,0,0,1,0-.09A.28.28,0,0,1,13.41,15.56Z" transform="translate(0)" fill="#63442c"/><path d="M11.53,20.84c.09.42.18.84.28,1.26l.15.65-.24-.07c-.08-.43-.14-.87-.18-1.3,0-.18,0-.36,0-.54Z" transform="translate(0)" fill="#f1a484"/><path d="M14.28,24.57h-.2c0-.05.09-.1,0-.14s-.1,0-.15.05l-.06,0a5.51,5.51,0,0,1-.71-.08s-.08-.07-.06-.12.07,0,.11,0a6.26,6.26,0,0,0,1.06,0c.07,0,.09,0,.07.08Z" transform="translate(0)" fill="#78acd4"/><path d="M20.6,8.12a1,1,0,0,0-.45.17,5.3,5.3,0,0,0-1.42,1s-.08.07-.09.13h-.17a3.89,3.89,0,0,1,1-.81,7.85,7.85,0,0,1,.95-.51A.21.21,0,0,0,20.52,8C20.57,8,20.55,8.08,20.6,8.12Z" transform="translate(0)" fill="#5685a8"/><path d="M19.62,7c-.13,0-.22.09-.33.14a.49.49,0,0,1-.19.07c-.1,0-.16,0-.1-.15s.1,0,.15-.07A2,2,0,0,1,20,6.62a.26.26,0,0,1,.21,0Z" transform="translate(0)" fill="#68c7df"/><path d="M13.18,24.42a5.74,5.74,0,0,0,.71.09l-.33.43s-.06.07-.1,0S13.27,24.6,13.18,24.42Z" transform="translate(0)" fill="#a5d6fc"/><path d="M24.14,22c0,.17,0,.33,0,.5s0,.54-.05.81a.34.34,0,0,1,0,.1.13.13,0,0,1-.06,0H24s0-.05,0-.08c.08-.45.08-.92.18-1.37Z" transform="translate(0)" fill="#39a6bf"/><path d="M13.25,25.43a.12.12,0,0,0-.08,0,.1.1,0,0,0-.05.06c-.06.09-.12.07-.17,0s-.1-.19-.15-.29S12.88,25,13,25s.1.14.15.22.09.17.13.25Z" transform="translate(0)" fill="#5685a8"/><path d="M12.09,23.25c0,.14,0,.3.09.42a0,0,0,0,1,0,0,0,0,0,0,1,0,0v0h0c-.09,0-.2.06-.24-.08a2,2,0,0,1-.09-.49Z" transform="translate(0)" fill="#39a6bf"/><path d="M12.09,23.25l-.27-.08a1.58,1.58,0,0,1-.1-.49l.24.07A4.6,4.6,0,0,1,12.09,23.25Z" transform="translate(0)" fill="#63442c"/><path d="M22.55,20.63l-.2,0-.1-.21c-.06-.08,0-.11.06-.11h.26Z" transform="translate(0)" fill="#f9d6c7"/><path d="M11.53,20.84h0a1,1,0,0,1,0-.35.6.6,0,0,1,0,.35Z" transform="translate(0)" fill="#888989"/><path d="M9.08,22.61l0-.22C9.1,22.46,9.15,22.52,9.08,22.61Z" transform="translate(0)" fill="#5685a8"/><path d="M19.5,5.9l-.07,0-.08,0a.11.11,0,0,1,.08,0,.1.1,0,0,1,.07,0Z" transform="translate(0)" fill="#39a6bf"/><path d="M16.6,5.21h0s0,0,0,0h0l0,0Z" transform="translate(0)" fill="#39a6bf"/><path d="M10.43,13.61l0-.07S10.46,13.59,10.43,13.61Z" transform="translate(0)" fill="#68c7df"/><path d="M10.88,11.59l0,0S10.9,11.59,10.88,11.59Z" transform="translate(0)" fill="#68c7df"/><path d="M12.08,8.61h0v0l0,0Z" transform="translate(0)" fill="#68c7df"/><path d="M9.16,22.11l0,0A0,0,0,0,1,9.16,22.11Z" transform="translate(0)" fill="#89e0f4"/><path d="M6.34,10.76a2.8,2.8,0,0,1,.5-.95A13.24,13.24,0,0,1,9,7.5l.14-.1a.18.18,0,0,0,.12-.05,8.12,8.12,0,0,1,2.07-.9A12.46,12.46,0,0,1,13.91,6a1.2,1.2,0,0,1,.5,0,4.48,4.48,0,0,1-.62.11,10.08,10.08,0,0,0-2.11.63A7.06,7.06,0,0,0,8.87,8.9a7.36,7.36,0,0,0-1,1.5,8,8,0,0,0-.47,1.08A1.51,1.51,0,0,1,7,11.23a6.32,6.32,0,0,1-.68-.47Z" transform="translate(0)" fill="#39a6bf"/><path d="M7.44,11.47a8.6,8.6,0,0,1,.47-1.08,7.57,7.57,0,0,1,1-1.49,7,7,0,0,1,2.81-2.11,9.59,9.59,0,0,1,2.1-.63,6.17,6.17,0,0,0,.62-.11,7.28,7.28,0,0,1,1.32,0,5.2,5.2,0,0,1,1,.14,5.1,5.1,0,0,1,1.46.62,1.91,1.91,0,0,1,.32.24s.05,0,0,.07-.06,0-.09,0L18.3,7a3,3,0,0,0-.73-.38,5.6,5.6,0,0,0-1.71-.39,7.87,7.87,0,0,0-3.2.37,6.94,6.94,0,0,0-2,.89A7.87,7.87,0,0,0,8,10.7l-.41.89a.29.29,0,0,1-.15-.12Z" transform="translate(0)" fill="#1b5d6c"/><path d="M6.69,15.17a2,2,0,0,0-.94.46,2.93,2.93,0,0,1,0-.41c0-.81.09-1.61.15-2.42A2.85,2.85,0,0,1,6,12.08a1.28,1.28,0,0,1,.58.71c.06.24.18.47.24.73l0,.11A7.92,7.92,0,0,0,6.69,15.17Z" transform="translate(0)" fill="#39a6bf"/><path d="M7.11,15.39h.16a.2.2,0,0,1,.11,0,.23.23,0,0,1,.1.07.21.21,0,0,1,0,.11.14.14,0,0,1,0,.11A1.63,1.63,0,0,0,7.73,17a6.52,6.52,0,0,0,.53.87c.05.06,0,.07,0,.07a.12.12,0,0,1-.1,0A.2.2,0,0,1,8,17.83a3.81,3.81,0,0,0-.74-.76.77.77,0,0,0-1.09.17,2.21,2.21,0,0,0-.39,1.16.6.6,0,0,1-.13.38l-.06.06c-.11.05-.45-.17-.46-.29a.21.21,0,0,1,.12,0c.1.06.12,0,.11-.08l0-.05s0-.09,0-.13c0-.24.11-.48.15-.73a3.25,3.25,0,0,0,.12-.52,1.44,1.44,0,0,1,.78-.77.51.51,0,0,0,.21-.17.5.5,0,0,0,.08-.26.74.74,0,0,1,.27-.38A.11.11,0,0,0,7.11,15.39Z" transform="translate(0)" fill="#888989"/><path d="M8.87,15.83a.6.6,0,0,1,.19.23,2.35,2.35,0,0,1,.4,1.31.5.5,0,0,1-.38.47.4.4,0,0,1-.45-.13A3.2,3.2,0,0,1,7.74,16a.51.51,0,0,1,.47-.53.57.57,0,0,1,.66.37c-.07,0-.1-.05-.15-.09a.28.28,0,0,0-.15-.06.32.32,0,0,0-.17,0,.52.52,0,0,0-.11.1.26.26,0,0,0,0,.15.59.59,0,0,0,.07.29.85.85,0,0,0,.17.25.28.28,0,0,0,.15.08.32.32,0,0,0,.17,0A.4.4,0,0,0,9,16.36a.31.31,0,0,0,0-.19A1.72,1.72,0,0,0,8.9,16a.16.16,0,0,1,0-.13Z" transform="translate(0)" fill="#888989"/><path d="M8.22,15.07c-.38.15-.36.14-.52-.22-.3-.71-.56-1.44-.83-2.16a1.72,1.72,0,0,0-.67-.88c-.49-.35-.91-.8-1.41-1.14-.16-.11-.2-.48,0-.55s.13,0,.17.06c-.17.11-.19.21-.06.34s.42.39.65.56A17.66,17.66,0,0,1,7,12.24a.46.46,0,0,0,.16.07Z" transform="translate(0)" fill="#888989"/><path d="M7.17,12.31A.46.46,0,0,1,7,12.24a17.66,17.66,0,0,0-1.43-1.16c-.23-.17-.44-.37-.65-.56s-.12-.23.05-.34c.58.45,1.16.88,1.76,1.29a3.74,3.74,0,0,0,.49.32.56.56,0,0,1,.18.16.49.49,0,0,1,.08.23C7.39,12.23,7.3,12.32,7.17,12.31Z" transform="translate(0)" fill="#fdfdfd"/><path d="M7.17,12.31c.13,0,.22-.08.32-.13a8.24,8.24,0,0,1,.42,1c.17.47.33,1,.5,1.43.05.15.08.3.12.45H8.22Z" transform="translate(0)" fill="#bdbdbd"/><path d="M7.11,15.39s0,.07,0,.09a.79.79,0,0,0-.27.38.74.74,0,0,0-.26,0,1.33,1.33,0,0,0-.88.86,4.55,4.55,0,0,0-.36,1.44.48.48,0,0,0,0,.17.28.28,0,0,0,.08.15c0,.08,0,.14-.11.08a.21.21,0,0,0-.12,0,4.85,4.85,0,0,1,.12-1.32,3.83,3.83,0,0,1,.45-1.15A1.46,1.46,0,0,1,7.11,15.39Z" transform="translate(0)" fill="#bdbdbd"/><path d="M6,12.08a2.85,2.85,0,0,0-.12.72c-.06.81-.16,1.61-.15,2.42a2.93,2.93,0,0,0,0,.41.58.58,0,0,1-.21.2,20.28,20.28,0,0,1,0-2.7,9.4,9.4,0,0,1,.13-1.29.78.78,0,0,1,.27.24Z" transform="translate(0)" fill="#89e0f4"/><path d="M6.69,15.17a8.07,8.07,0,0,1,.09-1.55l0-.11.15.42a.46.46,0,0,0,0,.2,6.86,6.86,0,0,0,0,1,.32.32,0,0,1-.19,0Z" transform="translate(0)" fill="#1b5d6c"/><path d="M6.88,15.14a6.86,6.86,0,0,1,0-1,.46.46,0,0,1,0-.2c0,.22.16.42.19.64a2.72,2.72,0,0,0-.1.57Z" transform="translate(0)" fill="#39a6bf"/><path d="M7.05,15.14c.06-.19,0-.39.1-.57a.28.28,0,0,1,.08.11.33.33,0,0,1,0,.13.53.53,0,0,0-.08.32Z" transform="translate(0)" fill="#1b5d6c"/><path d="M7.18,15.13a.53.53,0,0,1,.08-.32l.06.12C7.4,15.13,7.39,15.14,7.18,15.13Z" transform="translate(0)" fill="#39a6bf"/><path d="M19,27.83c0,.14-.11.18-.22.2a8.59,8.59,0,0,1-1.82.19h-.25a3.76,3.76,0,0,1-.1-.74c0-.28,0-.56,0-.84.08.11.11.24.24.32a1.15,1.15,0,0,0,.68.12.31.31,0,0,0,.2-.07.3.3,0,0,0,.1-.19,1.08,1.08,0,0,1,.11-.4c.2-.31.42-.61.63-.91l.39.41a4.7,4.7,0,0,0,0,.75.77.77,0,0,1-.25.1,6.9,6.9,0,0,0-.9.33c-.2.09-.24.19-.15.4l.21.41c.08.19.14.23.34.17Z" transform="translate(0)" fill="#a5d6fc"/><path d="M18.55,25.51l-.63.91a1.32,1.32,0,0,0-.11.4.3.3,0,0,1-.1.19.35.35,0,0,1-.2.07,1.18,1.18,0,0,1-.67-.12c-.14-.08-.17-.21-.25-.32a.1.1,0,0,1,0-.12.38.38,0,0,1,.4-.22c.07,0,.08-.05.1-.1s.06-.19.16-.24a.14.14,0,0,0,.06-.21,2.13,2.13,0,0,0-.56-.67.15.15,0,0,0-.09-.06h-.1a1.11,1.11,0,0,1,.08-.44.31.31,0,0,1,.19,0,.29.29,0,0,1,.15.12s0,0,0,.06a.21.21,0,0,0,0,.06,2.45,2.45,0,0,1,.52.86,1.24,1.24,0,0,0,.1.2.31.31,0,0,0,.09.11.28.28,0,0,0,.13,0A.2.2,0,0,0,18,26a.24.24,0,0,0,.1-.1c.09-.13.16-.27.25-.4S18.46,25.34,18.55,25.51Zm-.74.86c0-.06,0-.12,0-.17a.42.42,0,0,0-.13-.16.36.36,0,0,0-.2-.06.3.3,0,0,0-.17.08.24.24,0,0,0-.07.17c0,.17-.07.19-.21.16a.25.25,0,0,0-.15,0,.23.23,0,0,0-.11.11.22.22,0,0,0,0,.14.24.24,0,0,0,.07.13.47.47,0,0,0,.15.13.41.41,0,0,0,.19.05l.4,0,.09,0a.16.16,0,0,0,.06-.08,2,2,0,0,0,.14-.53Z" transform="translate(0)" fill="#5685a8"/><path d="M17.16,24.71c.11-.1.25-.08.37-.1a5.48,5.48,0,0,0,1.19-.37.57.57,0,0,1,.18,0c-.21.28-.42.55-.62.83s-.27.39-.42.61q-.12-.22-.24-.42A1.16,1.16,0,0,0,17.16,24.71Z" transform="translate(0)" fill="#a5d6fc"/><path d="M16.56,25h.11a.24.24,0,0,1,.08.06,1.85,1.85,0,0,1,.56.68c.05.09,0,.15-.06.2s-.12.15-.16.24,0,.12-.1.1a.38.38,0,0,0-.39.22,8.47,8.47,0,0,1,0-1.51Z" transform="translate(0)" fill="#a5d6fc"/><path d="M14.88,26.32l.23-.34c0-.05.07-.1.13-.07s0,.08,0,.13a1.72,1.72,0,0,0,0,.39c-.07.1-.14.11-.22,0a.69.69,0,0,0-.11-.13Z" transform="translate(0)" fill="#f1a484"/><path d="M19,27.83l-.84.25c-.2.06-.26,0-.34-.17l-.21-.41c-.09-.21-.05-.31.15-.41a8.7,8.7,0,0,1,.9-.32,1.09,1.09,0,0,0,.25-.1c.33,0,.37,0,.48.32a4.22,4.22,0,0,1,.18.45c0,.13,0,.19-.13.23Zm-.9.14a0,0,0,0,0,0,0l1.24-.43.05,0,0,0a.09.09,0,0,0,0-.05.07.07,0,0,0,0-.05c-.07-.16-.13-.31-.2-.46a.16.16,0,0,0,0-.07.09.09,0,0,0-.06,0,.08.08,0,0,0-.07,0H19a11.82,11.82,0,0,0-1.19.39l-.06,0a.1.1,0,0,0,0,.05.11.11,0,0,0,0,.06.13.13,0,0,0,0,.06,2.72,2.72,0,0,0,.19.47.15.15,0,0,0,.08.08.27.27,0,0,0,.12,0Z" transform="translate(0)" fill="#5685a8"/><path d="M20.62,15.06h-.29a.29.29,0,0,1-.18-.05.29.29,0,0,1-.13-.14.33.33,0,0,1,.12-.32,1.12,1.12,0,0,1,.33-.2,1.52,1.52,0,0,1,1-.11,1.06,1.06,0,0,1,.25.09.29.29,0,0,1,0,.53,1.76,1.76,0,0,1-.78.19h-.28Z" transform="translate(0)" fill="#63442c"/><path d="M15.05,15.06a2.58,2.58,0,0,1-.87-.12c-.24-.08-.35-.19-.34-.34s.12-.28.35-.35a1.61,1.61,0,0,1,.69,0,1.49,1.49,0,0,1,.63.28.37.37,0,0,1,.13.15.34.34,0,0,1,0,.2.37.37,0,0,1-.13.15.33.33,0,0,1-.19,0Z" transform="translate(0)" fill="#63442c"/><path d="M18.23,21.84a1.48,1.48,0,0,1-.62-.11,1.86,1.86,0,0,1-.52-.36c-.05-.05-.14-.11-.07-.2a.16.16,0,0,1,.23,0,2.05,2.05,0,0,0,.64.33,1.17,1.17,0,0,0,.74-.05.47.47,0,0,1,.31,0,.14.14,0,0,1,.13.12c0,.07,0,.1-.1.13a1.45,1.45,0,0,1-.74.18Z" transform="translate(0)" fill="#63442c"/><path d="M14.54,21.07a.45.45,0,0,1-.23,0,.16.16,0,0,1-.08-.06.16.16,0,0,1,0-.09.11.11,0,0,1,0-.08.13.13,0,0,1,.07-.06.46.46,0,0,1,.23-.06.6.6,0,0,1,.24.05.15.15,0,0,1,.09.06.15.15,0,0,1,0,.09c0,.07-.07.11-.12.15a.38.38,0,0,1-.24,0Z" transform="translate(0)" fill="#fdfdfd"/><path d="M21.88,20.81l-.11.16a1.12,1.12,0,0,1-.32,0,.41.41,0,0,1-.18-.05.16.16,0,0,1-.08-.06.46.46,0,0,1,0-.09c0-.07.06-.11.12-.14a.5.5,0,0,1,.32,0A.53.53,0,0,1,21.88,20.81Z" transform="translate(0)" fill="#fdfdfd"/><path d="M18.23,6.82a5.28,5.28,0,0,0-1.47-.62,5.2,5.2,0,0,0-1-.14,7.17,7.17,0,0,0-1.31,0,1.07,1.07,0,0,0-.5,0,11.81,11.81,0,0,0-2.56.43,8,8,0,0,0-2.08.9s-.07.06-.11.05c.11-.22.33-.3.53-.43A9,9,0,0,1,11.9,6a7.62,7.62,0,0,1,1.83-.37,9.5,9.5,0,0,1,2.76.19,9.22,9.22,0,0,1,1.26.4l.29.09C18.15,6.45,18.3,6.6,18.23,6.82Z" transform="translate(0)" fill="#68c7df"/><path d="M6.58,18H6.49s-.09,0-.1-.06,0-.09.06-.11a.59.59,0,0,1,.37-.07A1.08,1.08,0,0,1,7.68,19a.17.17,0,0,1,0,.1.3.3,0,0,1-.08.08.17.17,0,0,1-.1,0,.17.17,0,0,1-.1,0c-.1,0-.17-.08-.14-.2a.92.92,0,0,0-.1-.63A.64.64,0,0,0,6.58,18Z" transform="translate(0)" fill="#63442c"/><path d="M21.9,18.84a1.42,1.42,0,0,1-.29.86.39.39,0,0,1-.17.14.52.52,0,0,1-.21.07.91.91,0,0,1-.23,0,.46.46,0,0,1-.18-.13,1.46,1.46,0,0,1-.42-.89c0-.08,0-.18.09-.2s.2,0,.23.13.21.27.45.26a.34.34,0,0,0,.25-.08.36.36,0,0,0,.13-.22.29.29,0,0,1,.14-.13.23.23,0,0,1,.18,0S21.9,18.65,21.9,18.84Z" transform="translate(0)" fill="#68c7df"/><path d="M21.22,17.37c0-.17,0-.36.23-.46l.09,0a.14.14,0,0,1,.09,0l.09,0a.13.13,0,0,1,.06.07.84.84,0,0,1,.14.37.86.86,0,0,1-.05.39.23.23,0,0,1-.09.14.25.25,0,0,1-.16.06.32.32,0,0,1-.18-.06.33.33,0,0,1-.12-.14A.79.79,0,0,1,21.22,17.37Z" transform="translate(0)" fill="#fdfdfd"/><path d="M14,18.62c.09,0,.14,0,.17.12a.36.36,0,0,0,.13.24.41.41,0,0,0,.26.07c.24,0,.38-.07.44-.27s.11-.14.22-.12.11.12.1.19a1.48,1.48,0,0,1-.46.94.52.52,0,0,1-.18.1.5.5,0,0,1-.21,0,.76.76,0,0,1-.2-.06.47.47,0,0,1-.15-.13,1.53,1.53,0,0,1-.3-1C13.78,18.62,13.78,18.62,14,18.62Z" transform="translate(0)" fill="#68c7df"/><path d="M14.55,17.29a.4.4,0,0,1,.07-.24.32.32,0,0,1,.1-.1.28.28,0,0,1,.13,0,.3.3,0,0,1,.13,0l.11.08a.76.76,0,0,1,.08.82.52.52,0,0,1-.11.1.26.26,0,0,1-.28,0,.36.36,0,0,1-.11-.1A.85.85,0,0,1,14.55,17.29Z" transform="translate(0)" fill="#fdfdfd"/><path d="M13.57,26.38c0,.08,0,.15-.06.24a.86.86,0,0,1-.53.21.45.45,0,0,1-.28-.07.43.43,0,0,1-.18-.22.54.54,0,0,1,0-.31.62.62,0,0,1,.14-.28.55.55,0,0,1,.23-.17.48.48,0,0,1,.29,0,.47.47,0,0,1,.42.5.3.3,0,0,0,0,.1Zm-.11-.08a.41.41,0,0,0-.07-.26.48.48,0,0,0-.2-.17.44.44,0,0,0-.49.09.48.48,0,0,0-.13.23.46.46,0,0,0,0,.26.54.54,0,0,0,.16.21.44.44,0,0,0,.25.08.55.55,0,0,0,.18,0,.49.49,0,0,0,.15-.1.4.4,0,0,0,.1-.15.36.36,0,0,0,0-.18Z" transform="translate(0)" fill="#5685a8"/><path d="M5.39,18.5a.28.28,0,0,1-.08-.15.48.48,0,0,1,0-.17,4.55,4.55,0,0,1,.36-1.44,1.33,1.33,0,0,1,.88-.86.74.74,0,0,1,.26,0,.5.5,0,0,1-.08.26.39.39,0,0,1-.21.17,1.47,1.47,0,0,0-.78.77.08.08,0,0,0,0,0,.08.08,0,0,0,0,0c-.07.23-.15.46-.2.69a1.82,1.82,0,0,0-.07.61Z" transform="translate(0)" fill="#fdfdfd"/><path d="M5.41,18.44a1.82,1.82,0,0,1,.07-.61c0-.23.13-.46.2-.69a.08.08,0,0,1,0,0,.08.08,0,0,1,0,0,3.37,3.37,0,0,1-.12.53c0,.24-.1.48-.15.72C5.46,18.36,5.46,18.41,5.41,18.44Z" transform="translate(0)" fill="#bdbdbd"/><path d="M8.87,15.83a.19.19,0,0,0,0,.14,1,1,0,0,1,.07.21.31.31,0,0,1,0,.19.36.36,0,0,1-.12.15.25.25,0,0,1-.17,0,.28.28,0,0,1-.15-.08.81.81,0,0,1-.17-.24.6.6,0,0,1-.07-.3.22.22,0,0,1,0-.14.35.35,0,0,1,.11-.1.47.47,0,0,1,.17,0,.3.3,0,0,1,.15.07s.08.09.15.09Z" transform="translate(0)" fill="#bdbdbd"/><path d="M17.81,26.37a2.42,2.42,0,0,1-.13.53.22.22,0,0,1-.06.07.12.12,0,0,1-.1,0,2.56,2.56,0,0,1-.39,0,.39.39,0,0,1-.19-.06.48.48,0,0,1-.16-.12.31.31,0,0,1-.06-.13.26.26,0,0,1,0-.15.24.24,0,0,1,.1-.1.26.26,0,0,1,.15,0c.15,0,.22,0,.22-.16a.23.23,0,0,1,.07-.17.24.24,0,0,1,.17-.07.33.33,0,0,1,.19.06.27.27,0,0,1,.13.15,1.16,1.16,0,0,1,0,.18Zm-.51.43c.15.05.22,0,.24-.19s0-.17,0-.25a.17.17,0,0,0,0-.1.26.26,0,0,0,0-.09c-.06-.07-.11-.08-.16,0a.3.3,0,0,0,0,.23c0,.11,0,.14-.12.13l-.24,0c-.05,0-.09,0-.12,0a.12.12,0,0,0,0,.13.4.4,0,0,0,.18.1.44.44,0,0,0,.2,0Z" transform="translate(0)" fill="#63442c"/><path d="M18.13,28A.17.17,0,0,1,18,28a.3.3,0,0,1-.08-.08,2,2,0,0,1-.19-.48.07.07,0,0,1,0-.06.13.13,0,0,1,0-.06l0-.05.06,0c.39-.15.8-.26,1.19-.39h.08l.07,0,.06,0a.16.16,0,0,1,0,.07c.07.15.13.31.2.46s0,0,0,.05a.43.43,0,0,1,0,.05l0,0-.05,0L18.16,28Zm1.11-.58c0-.14-.08-.26-.12-.38s-.05,0-.09,0L18,27.29c-.06,0-.08.05-.05.11l.19.35,0,0a.05.05,0,0,0,0,0h.07l.91-.33s.08,0,.08-.08Z" transform="translate(0)" fill="#63442c"/><path d="M13.46,26.29a.44.44,0,0,1-.08.25.47.47,0,0,1-.2.17.46.46,0,0,1-.26,0,.41.41,0,0,1-.23-.13.4.4,0,0,1-.12-.23.46.46,0,0,1,0-.26.55.55,0,0,1,.17-.2.46.46,0,0,1,.25-.08.57.57,0,0,1,.18,0,.56.56,0,0,1,.15.1.54.54,0,0,1,.1.16.32.32,0,0,1,0,.17Zm-.21.18s0-.07,0-.11,0-.12,0-.14h0l0,0,0,0a.43.43,0,0,0,0,.05h-.07s0-.05,0-.06-.09-.12,0-.17,0,0,0-.06l0,0H13c-.15,0-.25.11-.28.3s.08.25.24.28a.23.23,0,0,0,.18,0l.07,0,0-.06Zm0-.31a.1.1,0,0,0-.1-.11s0,0,0,0S13.2,26.16,13.26,26.16Z" transform="translate(0)" fill="#63442c"/><path d="M17.3,26.8a.44.44,0,0,1-.2,0,.4.4,0,0,1-.18-.1s-.07-.08,0-.13.07,0,.12,0l.23,0c.09,0,.16,0,.12-.13a.36.36,0,0,1,0-.23c0-.1.09-.09.15,0a.2.2,0,0,1,.05.09.34.34,0,0,1,0,.1c0,.09,0,.17,0,.25S17.45,26.85,17.3,26.8Z" transform="translate(0)" fill="#bdbdbd"/><path d="M19.24,27.39s0,.07-.09.08l-.9.33h-.08l0,0s0,0,0,0l-.19-.35c0-.06,0-.09,0-.11L19,27s.08,0,.1,0S19.2,27.25,19.24,27.39Zm-.93.29h.05l.64-.23c.07,0,.15,0,.11-.14s-.14-.24-.25-.2l-.71.25s-.09,0-.09.08a.34.34,0,0,0,.08.17A.38.38,0,0,0,18.31,27.68Z" transform="translate(0)" fill="#bdbdbd"/><path d="M12.72,26.29c0-.19.13-.3.28-.3h.05l0,0s0,0,0,.06-.06.11,0,.17,0,0,0,.06l0,0c-.08,0-.15-.16-.25,0Z" transform="translate(0)" fill="#bdbdbd"/><path d="M13.13,26.55a.22.22,0,0,1-.18,0,.43.43,0,0,1,0-.05.13.13,0,0,1,0-.09.16.16,0,0,1,.08-.06C13.17,26.38,13.07,26.51,13.13,26.55Z" transform="translate(0)" fill="#bdbdbd"/><path d="M13.13,26.55c-.06,0,0-.17-.09-.18s0,0,0,0l0,0h.07c.06,0,.07.1.11.15l-.05.06Z" transform="translate(0)" fill="#888989"/><path d="M13.25,26.47s-.05-.12-.11-.15a.43.43,0,0,1,0-.05l0,0,0,0h0c.06,0,0,.09,0,.14s0,.07,0,.11Z" transform="translate(0)" fill="#bdbdbd"/><path d="M12.94,26.52a.43.43,0,0,0,0,.05c-.15,0-.25-.1-.24-.28h.06C12.82,26.38,12.84,26.48,12.94,26.52Z" transform="translate(0)" fill="#888989"/><path d="M13.26,26.16c-.06,0-.11,0-.12-.08s0,0,0,0S13.25,26.09,13.26,26.16Z" transform="translate(0)" fill="#bdbdbd"/><path d="M18.31,27.68a.3.3,0,0,1-.16-.08.32.32,0,0,1-.09-.17c0-.05,0-.07.09-.08l.71-.25c.12,0,.19,0,.25.2s0,.12-.11.14l-.64.23Zm.69-.39a.13.13,0,0,0-.17-.1l-.57.18s-.12,0-.09.08,0,.18.16.15l.59-.2s0,0,.06,0a.19.19,0,0,0,0-.07Z" transform="translate(0)" fill="#63442c"/><path d="M12.94,26.52c-.1,0-.12-.14-.16-.22s.17,0,.25,0,0,0,0,0a.16.16,0,0,0-.08.06A.13.13,0,0,0,12.94,26.52Z" transform="translate(0)" fill="#63442c"/><path d="M19,27.29a.19.19,0,0,1,0,.07s0,0-.06,0l-.59.2c-.11,0-.13-.09-.16-.15s0-.07.09-.08l.57-.18A.13.13,0,0,1,19,27.29Z" transform="translate(0)" fill="#bdbdbd"/></g></svg>