<svg width="24" height="24" viewBox="0 0 24 24" fill="none" xmlns="http://www.w3.org/2000/svg">
<path d="M11.4375 2.25C8.96108 2.25 6.9375 4.2736 6.9375 6.75C6.9375 9.2264 8.96108 11.25 11.4375 11.25C13.9139 11.25 15.9375 9.2264 15.9375 6.75C15.9375 4.2736 13.9139 2.25 11.4375 2.25ZM11.4375 3.75C13.1033 3.75 14.4375 5.08426 14.4375 6.75C14.4375 8.41573 13.1033 9.75 11.4375 9.75C9.77175 9.75 8.4375 8.41573 8.4375 6.75C8.4375 5.08426 9.77175 3.75 11.4375 3.75Z" fill="#FFB965"/>
<path d="M9.1875 12.75C5.46098 12.75 2.4375 15.7734 2.4375 19.4999V20.9999C2.43752 21.1988 2.51654 21.3896 2.65719 21.5302C2.79784 21.6709 2.98859 21.7499 3.1875 21.7499H11.3233C11.4227 21.7513 11.5213 21.733 11.6136 21.6959C11.7058 21.6589 11.7897 21.6038 11.8605 21.534C11.9313 21.4643 11.9875 21.3811 12.0258 21.2894C12.0642 21.1977 12.084 21.0993 12.084 20.9999C12.084 20.9005 12.0642 20.8021 12.0258 20.7104C11.9875 20.6188 11.9313 20.5356 11.8605 20.4658C11.7897 20.396 11.7058 20.341 11.6136 20.304C11.5213 20.2669 11.4227 20.2485 11.3233 20.2499H3.9375V19.4999C3.9375 16.5785 6.26603 14.2499 9.1875 14.2499H12.1992C12.2986 14.2514 12.3973 14.233 12.4895 14.1959C12.5817 14.1589 12.6656 14.1039 12.7364 14.0341C12.8072 13.9643 12.8634 13.8811 12.9018 13.7894C12.9401 13.6977 12.9599 13.5993 12.9599 13.5C12.9599 13.4006 12.9401 13.3022 12.9018 13.2105C12.8634 13.1188 12.8072 13.0356 12.7364 12.9658C12.6656 12.8961 12.5817 12.841 12.4895 12.804C12.3973 12.7669 12.2986 12.7485 12.1992 12.75H9.1875Z" fill="#FFB965"/>
<path d="M20.4375 17.5312C20.4375 17.3892 20.3811 17.2529 20.2806 17.1524C20.1801 17.052 20.0439 16.9955 19.9018 16.9955C19.1916 16.9947 18.5108 16.7122 18.0087 16.2101C17.5065 15.7079 17.2241 15.0271 17.2232 14.317C17.2232 14.1749 17.1668 14.0386 17.0663 13.9382C16.9658 13.8377 16.8296 13.7812 16.6875 13.7812C16.5454 13.7812 16.4092 13.8377 16.3087 13.9382C16.2082 14.0386 16.1518 14.1749 16.1518 14.317C16.1509 15.0271 15.8685 15.7079 15.3663 16.2101C14.8642 16.7122 14.1834 16.9947 13.4732 16.9955C13.3311 16.9955 13.1949 17.052 13.0944 17.1524C12.9939 17.2529 12.9375 17.3892 12.9375 17.5312C12.9375 17.6733 12.9939 17.8096 13.0944 17.9101C13.1949 18.0105 13.3311 18.067 13.4732 18.067C14.1834 18.0678 14.8642 18.3503 15.3663 18.8524C15.8685 19.3546 16.1509 20.0354 16.1518 20.7455C16.1518 20.8876 16.2082 21.0239 16.3087 21.1243C16.4092 21.2248 16.5454 21.2812 16.6875 21.2812C16.8296 21.2812 16.9658 21.2248 17.0663 21.1243C17.1668 21.0239 17.2232 20.8876 17.2232 20.7455C17.2241 20.0354 17.5065 19.3546 18.0087 18.8524C18.5108 18.3503 19.1916 18.0678 19.9018 18.067C20.0439 18.067 20.1801 18.0105 20.2806 17.9101C20.3811 17.8096 20.4375 17.6733 20.4375 17.5312ZM16.6875 18.817C16.3698 18.2903 15.9285 17.849 15.4018 17.5312C15.9285 17.2135 16.3698 16.7722 16.6875 16.2455C17.0052 16.7722 17.4465 17.2135 17.9732 17.5312C17.4465 17.849 17.0052 18.2903 16.6875 18.817Z" fill="#FFB965"/>
<path d="M21.0938 5.4375C21.0938 5.37001 21.0669 5.30529 21.0192 5.25757C20.9715 5.20984 20.9068 5.18304 20.8393 5.18304C20.502 5.18263 20.1786 5.04845 19.9401 4.80994C19.7015 4.57142 19.5674 4.24803 19.567 3.91071C19.567 3.84323 19.5402 3.7785 19.4924 3.73078C19.4447 3.68306 19.38 3.65625 19.3125 3.65625C19.245 3.65625 19.1803 3.68306 19.1326 3.73078C19.0848 3.7785 19.058 3.84323 19.058 3.91071C19.0576 4.24803 18.9235 4.57142 18.6849 4.80994C18.4464 5.04845 18.123 5.18263 17.7857 5.18304C17.7182 5.18304 17.6535 5.20984 17.6058 5.25757C17.5581 5.30529 17.5312 5.37001 17.5312 5.4375C17.5312 5.50499 17.5581 5.56971 17.6058 5.61743C17.6535 5.66515 17.7182 5.69196 17.7857 5.69196C18.123 5.69237 18.4464 5.82655 18.6849 6.06506C18.9235 6.30358 19.0576 6.62697 19.058 6.96429C19.058 7.03177 19.0848 7.0965 19.1326 7.14422C19.1803 7.19194 19.245 7.21875 19.3125 7.21875C19.38 7.21875 19.4447 7.19194 19.4924 7.14422C19.5402 7.0965 19.567 7.03177 19.567 6.96429C19.5674 6.62697 19.7015 6.30358 19.9401 6.06506C20.1786 5.82655 20.502 5.69237 20.8393 5.69196C20.9068 5.69196 20.9715 5.66515 21.0192 5.61743C21.0669 5.56971 21.0938 5.50499 21.0938 5.4375ZM19.3125 6.04821C19.1616 5.79805 18.952 5.58843 18.7018 5.4375C18.952 5.28657 19.1616 5.07695 19.3125 4.82679C19.4634 5.07695 19.673 5.28657 19.9232 5.4375C19.673 5.58843 19.4634 5.79805 19.3125 6.04821Z" fill="#FFB965"/>
<path d="M20.4375 12.75C20.66 12.75 20.8775 12.684 21.0625 12.5604C21.2475 12.4368 21.3917 12.2611 21.4769 12.0555C21.562 11.85 21.5843 11.6238 21.5409 11.4055C21.4975 11.1873 21.3903 10.9868 21.233 10.8295C21.0757 10.6722 20.8752 10.565 20.657 10.5216C20.4388 10.4782 20.2126 10.5005 20.007 10.5856C19.8014 10.6708 19.6257 10.815 19.5021 11C19.3785 11.185 19.3125 11.4025 19.3125 11.625C19.3125 11.9234 19.431 12.2095 19.642 12.4205C19.853 12.6315 20.1391 12.75 20.4375 12.75ZM20.4375 11.25C20.5117 11.25 20.5842 11.272 20.6458 11.3132C20.7075 11.3544 20.7556 11.413 20.784 11.4815C20.8123 11.55 20.8198 11.6254 20.8053 11.6982C20.7908 11.7709 20.7551 11.8377 20.7027 11.8902C20.6502 11.9426 20.5834 11.9783 20.5107 11.9928C20.4379 12.0073 20.3625 11.9998 20.294 11.9715C20.2255 11.9431 20.1669 11.895 20.1257 11.8333C20.0845 11.7717 20.0625 11.6992 20.0625 11.625C20.0625 11.5255 20.102 11.4302 20.1723 11.3598C20.2427 11.2895 20.338 11.25 20.4375 11.25Z" fill="#FFB965"/>
</svg>
