<svg width="24" height="24" viewBox="0 0 24 24" fill="none" xmlns="http://www.w3.org/2000/svg">
<path d="M11.9505 4.21894C8.2279 4.24515 5.1205 7.36229 5.12097 11.0986C5.12125 13.17 6.04169 15.1109 7.64632 16.4239C7.97135 16.6899 8.17272 17.0617 8.2136 17.4611C8.19349 17.5809 8.20727 17.4428 8.2031 20.4375C8.2031 20.8258 8.51791 21.1406 8.90622 21.1406H9.16404V21.1641C9.16404 22.7278 10.4362 24 12 24C13.5637 24 14.8359 22.7278 14.8359 21.1641V21.1406H15.0937C15.482 21.1406 15.7969 20.8258 15.7969 20.4375C15.7922 17.4547 15.8078 17.5739 15.7844 17.4485C15.8185 17.0595 16.0044 16.7051 16.307 16.4618C17.9416 15.1478 18.879 13.1927 18.879 11.0977C18.8789 7.26952 15.7642 4.19068 11.9505 4.21894ZM14.3906 18.2813V19.7344H9.60935V18.2813H14.3906ZM13.4297 21.1641C13.4297 21.9524 12.7883 22.5938 12 22.5938C11.2116 22.5938 10.5703 21.9524 10.5703 21.1641V21.1406H13.4297V21.1641ZM15.4259 15.3657C14.9419 15.7548 14.6081 16.2841 14.4596 16.875H9.53168C9.37521 16.2798 9.0319 15.7407 8.53685 15.3356C7.25993 14.2907 6.52746 12.7463 6.52722 11.0985C6.52685 8.15237 9.01493 5.64586 11.9604 5.62515C11.9737 5.62505 11.9869 5.62501 12.0002 5.62501C15.0236 5.62501 17.4727 8.07137 17.4727 11.0977C17.4727 12.7644 16.7267 14.3201 15.4259 15.3657Z" fill="#92DA81"/>
<path d="M14.2878 9.66325L12.7032 10.8927V10.2188C12.7032 9.63489 12.0301 9.30545 11.569 9.66325L8.85027 11.7726C8.54347 12.0107 8.48769 12.4524 8.72577 12.7592C8.96413 13.0664 9.40593 13.1214 9.7123 12.8837L11.2969 11.6542V12.3281C11.2969 12.912 11.97 13.2415 12.4311 12.8837L15.1498 10.7743C15.4566 10.5362 15.5124 10.0945 15.2743 9.78775C15.0363 9.48095 14.5946 9.42521 14.2878 9.66325Z" fill="#92DA81"/>
<path d="M12 2.85938C12.3883 2.85938 12.7031 2.54456 12.7031 2.15625V0.703125C12.7031 0.314812 12.3883 0 12 0C11.6117 0 11.2969 0.314812 11.2969 0.703125V2.15625C11.2969 2.54456 11.6117 2.85938 12 2.85938Z" fill="#92DA81"/>
<path d="M5.15544 5.28261C5.42999 5.55721 5.87521 5.55726 6.1498 5.28261C6.4244 5.00802 6.4244 4.56285 6.1498 4.28826L5.1223 3.26075C4.84776 2.98616 4.40254 2.98616 4.12794 3.26075C3.85335 3.53535 3.85335 3.98052 4.12794 4.25511L5.15544 5.28261Z" fill="#92DA81"/>
<path d="M3.72656 11.1328C3.72656 10.7445 3.41175 10.4297 3.02344 10.4297H1.57031C1.182 10.4297 0.867188 10.7445 0.867188 11.1328C0.867188 11.5211 1.182 11.8359 1.57031 11.8359H3.02344C3.41175 11.8359 3.72656 11.5211 3.72656 11.1328Z" fill="#92DA81"/>
<path d="M22.4297 10.4297H20.9766C20.5882 10.4297 20.2734 10.7445 20.2734 11.1328C20.2734 11.5211 20.5882 11.8359 20.9766 11.8359H22.4297C22.818 11.8359 23.1328 11.5211 23.1328 11.1328C23.1328 10.7445 22.818 10.4297 22.4297 10.4297Z" fill="#92DA81"/>
<path d="M21.9049 14.4745L20.5624 13.9185C20.2036 13.7698 19.7923 13.9402 19.6437 14.299C19.4951 14.6578 19.6654 15.0691 20.0242 15.2177L21.3667 15.7738C21.7268 15.923 22.1373 15.7506 22.2854 15.3932C22.434 15.0344 22.2637 14.6231 21.9049 14.4745Z" fill="#92DA81"/>
<path d="M7.9152 3.10858C8.06361 3.4668 8.47461 3.63794 8.83391 3.48911C9.19269 3.34052 9.36303 2.92919 9.21444 2.57041L8.65836 1.22791C8.50972 0.869175 8.09844 0.698831 7.73966 0.847378C7.38087 0.995972 7.21053 1.4073 7.35912 1.76608L7.9152 3.10858Z" fill="#92DA81"/>
<path d="M3.97579 7.04803L2.63329 6.49196C2.27451 6.34331 1.86323 6.51371 1.71459 6.87249C1.566 7.23127 1.73634 7.64255 2.09512 7.79119L3.43762 8.34727C3.79776 8.49647 4.20825 8.32411 4.35633 7.96674C4.50492 7.60796 4.33458 7.19663 3.97579 7.04803Z" fill="#92DA81"/>
<path d="M18.8446 5.28261L19.8721 4.25511C20.1467 3.98052 20.1467 3.53535 19.8721 3.26075C19.5976 2.98616 19.1523 2.98616 18.8777 3.26075L17.8502 4.28826C17.5756 4.56285 17.5756 5.00802 17.8502 5.28261C18.1247 5.55721 18.57 5.55726 18.8446 5.28261Z" fill="#92DA81"/>
<path d="M15.166 3.48924C15.5262 3.6384 15.9367 3.46608 16.0847 3.10871L16.6408 1.76621C16.7894 1.40743 16.6191 0.996147 16.2603 0.847507C15.9015 0.69896 15.4902 0.869257 15.3416 1.22804L14.7855 2.57054C14.6369 2.92932 14.8073 3.3406 15.166 3.48924Z" fill="#92DA81"/>
<path d="M3.43762 13.9184L2.09512 14.4744C1.73634 14.623 1.566 15.0344 1.71459 15.3931C1.86295 15.7513 2.274 15.9226 2.63329 15.7737L3.97579 15.2176C4.33458 15.069 4.50492 14.6577 4.35633 14.2989C4.20769 13.9401 3.79645 13.7697 3.43762 13.9184Z" fill="#92DA81"/>
<path d="M19.6436 7.96673C19.792 8.3249 20.203 8.49614 20.5623 8.34726L21.9048 7.79119C22.2636 7.64259 22.434 7.23127 22.2854 6.87249C22.1368 6.51371 21.7255 6.34331 21.3667 6.49195L20.0242 7.04803C19.6654 7.19662 19.4951 7.60795 19.6436 7.96673Z" fill="#92DA81"/>
</svg>
