<svg width="24" height="24" viewBox="0 0 24 24" fill="none" xmlns="http://www.w3.org/2000/svg">
<path d="M23.2969 11.2972H22.3594V9.09398C22.3594 7.93078 21.4131 6.98447 20.25 6.98447C20.0011 6.98447 19.7622 7.02811 19.5403 7.10766C19.4591 6.01809 18.5474 5.15625 17.4375 5.15625C16.2744 5.15625 15.3281 6.10256 15.3281 7.26577V11.2972H8.67188V7.26577C8.67188 6.10256 7.72561 5.15625 6.5625 5.15625C5.45259 5.15625 4.54087 6.01809 4.45969 7.10766C4.23778 7.02811 3.99895 6.98447 3.75 6.98447C2.58689 6.98447 1.64062 7.93078 1.64062 9.09398V11.2972H0.703125C0.314812 11.2972 0 11.6121 0 12.0004C0 12.3888 0.314812 12.7036 0.703125 12.7036H1.64062V14.9069C1.64062 16.0701 2.58689 17.0164 3.75 17.0164C3.99891 17.0164 4.23778 16.9727 4.45969 16.8932C4.54087 17.9827 5.45259 18.8446 6.5625 18.8446C7.72561 18.8446 8.67188 17.8983 8.67188 16.7351V12.7036H15.3281V16.7351C15.3281 17.8983 16.2744 18.8446 17.4375 18.8446C18.5474 18.8446 19.4591 17.9827 19.5403 16.8932C19.7622 16.9727 20.001 17.0164 20.25 17.0164C21.4131 17.0164 22.3594 16.0701 22.3594 14.9069V12.7036H23.2969C23.6852 12.7036 24 12.3888 24 12.0004C24 11.6121 23.6852 11.2972 23.2969 11.2972ZM3.75 15.61C3.3623 15.61 3.04688 15.2946 3.04688 14.9069V9.09398C3.04688 8.70623 3.3623 8.39081 3.75 8.39081C4.1377 8.39081 4.45312 8.70623 4.45312 9.09398V14.9069C4.45312 15.2946 4.1377 15.61 3.75 15.61ZM7.26562 16.7351C7.26562 17.1228 6.9502 17.4382 6.5625 17.4382C6.1748 17.4382 5.85938 17.1228 5.85938 16.7351V7.26577C5.85938 6.87802 6.1748 6.56259 6.5625 6.56259C6.9502 6.56259 7.26562 6.87802 7.26562 7.26577V16.7351ZM18.1406 16.7351C18.1406 17.1228 17.8252 17.4382 17.4375 17.4382C17.0498 17.4382 16.7344 17.1228 16.7344 16.7351V7.26577C16.7344 6.87802 17.0498 6.56259 17.4375 6.56259C17.8252 6.56259 18.1406 6.87802 18.1406 7.26577V16.7351ZM20.9531 14.9069C20.9531 15.2946 20.6377 15.61 20.25 15.61C19.8623 15.61 19.5469 15.2946 19.5469 14.9069V9.09398C19.5469 8.70623 19.8623 8.39081 20.25 8.39081C20.6377 8.39081 20.9531 8.70623 20.9531 9.09398V14.9069Z" fill="#78E2FC"/>
</svg>
