<svg width="24" height="24" viewBox="0 0 24 24" fill="none" xmlns="http://www.w3.org/2000/svg">
<path d="M22.4062 9.56104C22.4062 7.62129 20.9688 6.01104 19.1031 5.73962C19.1102 5.64507 19.1136 5.55028 19.1136 5.45544C19.1136 3.32611 17.3813 1.59375 15.252 1.59375C13.8882 1.59375 12.6873 2.30438 12 3.37476C11.3127 2.30438 10.1118 1.59375 8.74805 1.59375C6.61871 1.59375 4.88635 3.32611 4.88635 5.45544C4.88635 5.55028 4.88985 5.64507 4.89684 5.73962C3.03119 6.01104 1.59375 7.62129 1.59375 9.56104C1.59375 10.4551 1.9048 11.3156 2.46255 12C1.9048 12.6844 1.59375 13.5449 1.59375 14.439C1.59375 16.3787 3.03119 17.989 4.89684 18.2604C4.88985 18.3549 4.88635 18.4497 4.88635 18.5446C4.88635 20.6739 6.61871 22.4062 8.74805 22.4062C10.1118 22.4062 11.3127 21.6956 12 20.6252C12.6873 21.6956 13.8882 22.4062 15.252 22.4062C17.3813 22.4062 19.1136 20.6739 19.1136 18.5446C19.1136 18.4497 19.1102 18.3549 19.1031 18.2604C20.9688 17.989 22.4062 16.3787 22.4062 14.439C22.4062 13.5449 22.0952 12.6844 21.5375 12C22.0952 11.3156 22.4062 10.4551 22.4062 9.56104ZM8.74805 21.1868C7.29113 21.1868 6.10583 20.0015 6.10583 18.5446C6.10583 18.4434 6.11205 18.3424 6.12364 18.2418C6.90147 18.1057 7.62084 17.7348 8.18603 17.1696C8.42415 16.9315 8.42415 16.5454 8.18603 16.3073C7.94794 16.0692 7.56186 16.0692 7.32373 16.3073C6.85887 16.7722 6.24189 17.0456 5.58609 17.0778C5.58495 17.0779 5.58377 17.0779 5.58264 17.0779C5.53585 17.0801 5.49426 17.0812 5.45544 17.0812C3.99853 17.0812 2.81323 15.8959 2.81323 14.439C2.81323 13.6817 3.13973 12.9594 3.70898 12.4573C3.8402 12.3415 3.91536 12.175 3.91536 12C3.91536 11.825 3.8402 11.6585 3.70898 11.5427C3.13973 11.0406 2.81323 10.3183 2.81323 9.56104C2.81323 8.10412 3.99853 6.91882 5.45544 6.91882C5.49426 6.91882 5.53585 6.91988 5.58264 6.92208C5.58329 6.92212 5.58394 6.92203 5.58459 6.92203C6.24095 6.95386 6.85854 7.22747 7.32377 7.69271C7.44283 7.81177 7.59889 7.87132 7.7549 7.87132C7.91091 7.87132 8.06701 7.81177 8.18603 7.69271C8.42415 7.45462 8.42415 7.06853 8.18603 6.83041C7.62084 6.26518 6.90147 5.89425 6.12364 5.75816C6.11205 5.65763 6.10583 5.55658 6.10583 5.45544C6.10583 3.99853 7.29113 2.81323 8.74805 2.81323C10.205 2.81323 11.3903 3.99853 11.3903 5.45544V18.5446C11.3903 20.0015 10.205 21.1868 8.74805 21.1868ZM20.291 12.4573C20.8603 12.9594 21.1868 13.6817 21.1868 14.439C21.1868 15.8959 20.0015 17.0812 18.5446 17.0812C18.5057 17.0812 18.4641 17.0801 18.4173 17.0779C18.222 17.0689 18.035 17.1534 17.913 17.3056C17.791 17.4579 17.7492 17.6593 17.8005 17.8475C17.8627 18.0752 17.8942 18.3098 17.8942 18.5446C17.8942 20.0015 16.7089 21.1868 15.252 21.1868C13.795 21.1868 12.6097 20.0015 12.6097 18.5446V16.6747H13.9341C14.1858 17.3844 14.8635 17.8942 15.6584 17.8942C16.6671 17.8942 17.4877 17.0736 17.4877 16.0649C17.4877 15.0563 16.6671 14.2357 15.6584 14.2357C14.8635 14.2357 14.1858 14.7455 13.9341 15.4552H12.6097V12.6097H15.5601C15.8118 13.3194 16.4895 13.8292 17.2844 13.8292C18.2931 13.8292 19.1136 13.0086 19.1136 12C19.1136 10.9914 18.2931 10.1708 17.2844 10.1708C16.4895 10.1708 15.8118 10.6806 15.5601 11.3903H12.6097V8.5448H13.9341C14.1858 9.2545 14.8635 9.76428 15.6584 9.76428C16.6671 9.76428 17.4877 8.94369 17.4877 7.93506C17.4877 6.92642 16.6671 6.10583 15.6584 6.10583C14.8635 6.10583 14.1858 6.61562 13.9341 7.32532H12.6097V5.45544C12.6097 3.99853 13.795 2.81323 15.252 2.81323C16.7089 2.81323 17.8942 3.99853 17.8942 5.45544C17.8942 5.69024 17.8627 5.92478 17.8005 6.15254C17.7492 6.34075 17.791 6.54213 17.913 6.69436C18.035 6.84655 18.2225 6.93086 18.4173 6.92208C18.4641 6.91988 18.5057 6.91882 18.5446 6.91882C20.0015 6.91882 21.1868 8.10412 21.1868 9.56104C21.1868 10.3183 20.8603 11.0406 20.291 11.5427C20.1598 11.6585 20.0846 11.825 20.0846 12C20.0846 12.175 20.1598 12.3415 20.291 12.4573ZM15.0487 16.0649C15.0487 15.7287 15.3222 15.4552 15.6584 15.4552C15.9947 15.4552 16.2682 15.7287 16.2682 16.0649C16.2682 16.4012 15.9947 16.6747 15.6584 16.6747C15.3222 16.6747 15.0487 16.4012 15.0487 16.0649ZM16.6747 12C16.6747 11.6638 16.9482 11.3903 17.2844 11.3903C17.6206 11.3903 17.8942 11.6638 17.8942 12C17.8942 12.3362 17.6206 12.6097 17.2844 12.6097C16.9482 12.6097 16.6747 12.3362 16.6747 12ZM15.0487 7.93506C15.0487 7.59885 15.3222 7.32532 15.6584 7.32532C15.9947 7.32532 16.2682 7.59885 16.2682 7.93506C16.2682 8.27127 15.9947 8.5448 15.6584 8.5448C15.3222 8.5448 15.0487 8.27127 15.0487 7.93506Z" fill="#C384E6"/>
</svg>
