<svg width="24" height="24" viewBox="0 0 24 24" fill="none" xmlns="http://www.w3.org/2000/svg">
<path d="M16.9142 4.1239C16.8428 3.85717 16.5686 3.69887 16.3018 3.77035L11.9552 4.93503C11.6884 5.0065 11.5302 5.28067 11.6016 5.5474C11.6731 5.81414 11.9473 5.97243 12.214 5.90096L16.0777 4.86568L17.113 8.72938C17.1845 8.99612 17.4586 9.15441 17.7254 9.08294C17.9921 9.01147 18.1504 8.7373 18.0789 8.47056L16.9142 4.1239ZM12.9992 9.19784C12.8611 9.43698 12.943 9.74278 13.1822 9.88085C13.4213 10.0189 13.7271 9.93698 13.8652 9.69784L12.9992 9.19784ZM15.9982 4.00331L12.9992 9.19784L13.8652 9.69784L16.8643 4.50331L15.9982 4.00331Z" fill="#56BEFF"/>
<path fill-rule="evenodd" clip-rule="evenodd" d="M10.5005 17.9975C8.01863 17.9975 6.00575 15.9873 6.00245 13.5054C5.99915 11.0235 8.00669 9.0079 10.4886 9.00127C12.9704 8.99467 14.9887 10.9995 14.9987 13.4814C15.0034 14.6775 14.5316 15.8262 13.6875 16.6737C12.8435 17.5211 11.6966 17.9975 10.5005 17.9975Z" stroke="#56BEFF" stroke-linecap="round" stroke-linejoin="round"/>
</svg>
