<svg width="251" height="251" viewBox="0 0 251 251" fill="none" xmlns="http://www.w3.org/2000/svg">
<path d="M79.0542 244.398C38.7891 244.398 6 211.609 6 171.344V79.0542C6 38.789 38.7891 6 79.0542 6H171.344C211.609 6 244.398 38.789 244.398 79.0542V171.344C244.398 211.609 211.609 244.398 171.344 244.398H79.0542Z" fill="#62E47F" stroke="#34AC4D" stroke-width="12"/>
<path fill-rule="evenodd" clip-rule="evenodd" d="M185.301 56.2754C175.577 49.1623 154.778 41.2388 125.155 68.6107C95.5323 41.2388 74.7333 49.1623 65.0091 56.2754C60.057 59.877 57.5359 66.0896 58.6163 72.1222C63.1183 97.3332 101.025 129.297 125.155 134.97C149.286 129.297 187.282 97.3332 191.694 72.1222C192.774 66.0896 190.253 59.967 185.301 56.2754ZM46.8213 100.934C47.0014 99.3137 48.9822 98.6835 50.0627 99.854L50.242 100.041L50.2423 100.042C60.6416 110.901 95.2041 146.992 100.665 155.228C107.147 164.952 109.488 186.291 97.4232 195.746C82.8369 207.09 50.4229 198.987 45.6508 174.676C41.5991 154.418 45.4707 113.81 46.8213 100.934ZM200.247 99.854C201.328 98.6835 203.309 99.3137 203.489 100.934C204.839 113.81 208.711 154.418 204.659 174.676C199.887 198.987 167.473 207.09 152.887 195.746C140.822 186.291 143.163 164.952 149.646 155.228C155.106 146.992 189.669 110.9 200.068 100.041L200.247 99.854Z" fill="white"/>
</svg>
