<svg width="24" height="24" viewBox="0 0 24 24" fill="none" xmlns="http://www.w3.org/2000/svg">
<path d="M12.0001 17.0001C9.24304 17.0001 7 14.7571 7 12.0001C7 9.24304 9.24304 7 12.0001 7C14.7571 7 17.0001 9.24304 17.0001 12.0001C17.0001 14.7571 14.7571 17.0001 12.0001 17.0001ZM12.0001 8.5C10.0701 8.5 8.5 10.0701 8.5 12.0001C8.5 13.93 10.0701 15.5001 12.0001 15.5001C13.93 15.5001 15.5001 13.93 15.5001 12.0001C15.5001 10.0701 13.93 8.5 12.0001 8.5Z" fill="#FB7091"/>
<path d="M11.9999 21.9999C6.4859 21.9999 2 17.514 2 11.9999C2 6.4859 6.4859 2 11.9999 2C17.514 2 21.9999 6.4859 21.9999 11.9999C21.9999 17.514 17.514 21.9999 11.9999 21.9999ZM11.9999 3.5C7.31299 3.5 3.5 7.31299 3.5 11.9999C3.5 16.6869 7.31299 20.4999 11.9999 20.4999C16.6869 20.4999 20.4999 16.6869 20.4999 11.9999C20.4999 7.31299 16.6869 3.5 11.9999 3.5Z" fill="#FB7091"/>
<path d="M12 5.00006C11.586 5.00006 11.25 4.66406 11.25 4.25006V0.75C11.25 0.335999 11.586 0 12 0C12.414 0 12.75 0.335999 12.75 0.75V4.25006C12.75 4.66406 12.414 5.00006 12 5.00006Z" fill="#FB7091"/>
<path d="M12 24.0001C11.586 24.0001 11.25 23.6641 11.25 23.2501V19.75C11.25 19.336 11.586 19 12 19C12.414 19 12.75 19.336 12.75 19.75V23.2501C12.75 23.6641 12.414 24.0001 12 24.0001Z" fill="#FB7091"/>
<path d="M4.25006 12.75H0.75C0.335999 12.75 0 12.414 0 12C0 11.586 0.335999 11.25 0.75 11.25H4.25006C4.66406 11.25 5.00006 11.586 5.00006 12C5.00006 12.414 4.66406 12.75 4.25006 12.75Z" fill="#FB7091"/>
<path d="M23.2501 12.75H19.75C19.336 12.75 19 12.414 19 12C19 11.586 19.336 11.25 19.75 11.25H23.2501C23.6641 11.25 24.0001 11.586 24.0001 12C24.0001 12.414 23.6641 12.75 23.2501 12.75Z" fill="#FB7091"/>
</svg>
