<svg width="24" height="24" viewBox="0 0 24 24" fill="none" xmlns="http://www.w3.org/2000/svg">
<path d="M20.7273 0H3.27273C1.46525 0 0 1.46525 0 3.27273V20.7273C0 22.5347 1.46525 24 3.27273 24H20.7273C22.5347 24 24 22.5347 24 20.7273V3.27273C24 1.46525 22.5347 0 20.7273 0Z" fill="#0077B5"/>
<path d="M8.6456 6.54546C8.6456 6.95001 8.52563 7.34548 8.30088 7.68186C8.07612 8.01823 7.75666 8.2804 7.3829 8.43522C7.00915 8.59004 6.59787 8.63054 6.20109 8.55162C5.80432 8.47269 5.43985 8.27788 5.15379 7.99182C4.86773 7.70576 4.67292 7.34129 4.59399 6.94451C4.51507 6.54773 4.55557 6.13646 4.71039 5.7627C4.8652 5.38894 5.12738 5.06948 5.46375 4.84472C5.80012 4.61996 6.19559 4.5 6.60014 4.5C7.14263 4.5 7.6629 4.7155 8.0465 5.0991C8.43009 5.4827 8.6456 6.00297 8.6456 6.54546Z" fill="white"/>
<path d="M8.18278 9.95454V18.9913C8.18314 19.058 8.17032 19.1241 8.14505 19.1858C8.11979 19.2475 8.08258 19.3036 8.03557 19.3508C7.98855 19.3981 7.93266 19.4356 7.8711 19.4612C7.80954 19.4868 7.74353 19.5 7.67687 19.5H5.52095C5.45428 19.5002 5.38824 19.4872 5.32661 19.4617C5.26498 19.4363 5.20899 19.3989 5.16185 19.3518C5.11471 19.3047 5.07735 19.2487 5.05192 19.187C5.02649 19.1254 5.01349 19.0594 5.01367 18.9927V9.95454C5.01367 9.82 5.06712 9.69097 5.16225 9.59584C5.25738 9.50071 5.38641 9.44727 5.52095 9.44727H7.67687C7.81117 9.44763 7.93984 9.50123 8.03468 9.59632C8.12952 9.69142 8.18278 9.82024 8.18278 9.95454Z" fill="white"/>
<path d="M19.4507 14.659V19.0336C19.4509 19.0949 19.439 19.1556 19.4156 19.2123C19.3922 19.2689 19.3579 19.3204 19.3145 19.3638C19.2712 19.4071 19.2197 19.4414 19.163 19.4648C19.1064 19.4882 19.0456 19.5001 18.9844 19.4999H16.6662C16.6049 19.5001 16.5442 19.4882 16.4875 19.4648C16.4308 19.4414 16.3794 19.4071 16.336 19.3638C16.2927 19.3204 16.2583 19.2689 16.2349 19.2123C16.2116 19.1556 16.1996 19.0949 16.1998 19.0336V14.794C16.1998 14.1613 16.3853 12.0231 14.5457 12.0231C13.1207 12.0231 12.8303 13.4863 12.773 14.1436V19.0336C12.773 19.1561 12.7248 19.2737 12.6388 19.361C12.5528 19.4482 12.436 19.4982 12.3135 19.4999H10.0744C10.0132 19.4999 9.95262 19.4879 9.89611 19.4644C9.83961 19.441 9.78829 19.4066 9.74509 19.3633C9.70189 19.3199 9.66767 19.2685 9.64438 19.212C9.62109 19.1554 9.6092 19.0948 9.60938 19.0336V9.91497C9.6092 9.85379 9.62109 9.79317 9.64438 9.7366C9.66767 9.68003 9.70189 9.6286 9.74509 9.58528C9.78829 9.54196 9.83961 9.50758 9.89611 9.48413C9.95262 9.46068 10.0132 9.4486 10.0744 9.4486H12.3135C12.4371 9.4486 12.5558 9.49774 12.6432 9.5852C12.7307 9.67266 12.7798 9.79128 12.7798 9.91497V10.7031C13.3089 9.90951 14.093 9.29724 15.7662 9.29724C19.4725 9.29724 19.4507 12.7581 19.4507 14.659Z" fill="white"/>
</svg>
